<svg xmlns="http://www.w3.org/2000/svg" width="17.047" height="17" viewBox="0 0 17.047 17">
  <g id="icon-word" transform="translate(-175.667 -175.956)">
    <g id="グループ_60" data-name="グループ 60" transform="translate(175.667 175.956)">
      <path id="パス_127" data-name="パス 127" d="M.014.16h7.57L7.525,12.62H.293Z" transform="translate(9.121 2)" fill="#fff"/>
      <path id="パス_115" data-name="パス 115" d="M192.436,177.832h-6.81v-1.876l-9.959,1.76V191.2l9.959,1.76v-2.038h6.81a.279.279,0,0,0,.278-.278V178.11A.279.279,0,0,0,192.436,177.832Zm-.255,12.511h-6.555V188.78h5.881V187.7h-5.881v-.95h5.881v-1.082h-5.881v-.95h5.881v-1.082h-5.881v-.95h5.881V181.6h-5.881v-.95h5.881v-1.082h-5.881v-1.162h6.555Z" transform="translate(-175.667 -175.956)" fill="#295498" fill-rule="evenodd"/>
    </g>
    <g id="グループ_129" data-name="グループ 129" transform="translate(-356.604 -152.885)">
      <path id="パス_117" data-name="パス 117" d="M535.29,340.415l-1.227-5.814h.943l.887,4.515,1.151-4.407h.832l1.144,4.4.88-4.507h.894l-1.227,5.814h-1.019l-1.137-4.167-1.109,4.167Z" transform="translate(0 0)" fill="#fff" stroke="#fff" stroke-width="0.2"/>
    </g>
  </g>
</svg>
