<svg xmlns="http://www.w3.org/2000/svg" width="189.8" height="144.541" viewBox="0 0 189.8 144.541">
  <g id="logo" transform="translate(300.711 -123.668)">
    <g id="グループ_134" data-name="グループ 134" transform="translate(-300.711 123.668)">
      <path id="パス_129" data-name="パス 129" d="M-283.493,136.692a1.163,1.163,0,0,0-1.517-1.266c-4.171.633-10.492,1.517-12.389,1.392a4.365,4.365,0,0,1-1.643-2.15c0-.505.252-.631,1.01-1.01a141.785,141.785,0,0,0,23.9-9.862.94.94,0,0,1,.631-.128c.381,0,1.012.381,1.012.633,0,13.4-.126,32.62-.126,50.068s.505,21.492.759,22.884c.252,2.148,1.516,2.656,15.424,3.412-.254,3.54-.379,3.919-1.643,3.919l-13.781-.126c-8.218,0-18.459.759-27.436.759-1.138,0-1.517-.128-1.392-.759.633-2.656.885-2.781,1.517-2.907,6.2-.507,9.61-1.138,12.265-1.517,2.4-.379,2.781-1.264,3.033-3.287.633-4.047.759-11,.633-27.564Z" transform="translate(300.711 -123.668)" fill="#c08d4e"/>
      <path id="パス_130" data-name="パス 130" d="M-247.629,123.8a20.638,20.638,0,0,1,17.7,9.862c3.794,6.07,6.575,16.437,6.575,30.218,0,21.241-5.942,30.6-10.369,34.77a25.815,25.815,0,0,1-17.319,7.334c-6.954,0-13.529-3.037-18.208-10.115-2.781-4.552-7.08-14.288-7.08-28.828,0-16.057,3.54-26.552,8.091-32.62a24.95,24.95,0,0,1,14.036-9.736,23.345,23.345,0,0,1,6.447-.885Zm-2.528,4.552a11.213,11.213,0,0,0-7.46,3.033c-2.909,2.781-7.585,11.253-7.585,31.481,0,19.346,4.045,29.84,8.47,34.265,2.656,2.907,5.058,4.045,7.965,4.045a10.3,10.3,0,0,0,7.587-3.035c2.781-2.654,6.827-12.01,6.7-31.356-.128-14.033-1.012-27.436-7.208-34.642a10.126,10.126,0,0,0-8.344-3.792Z" transform="translate(322.12 -123.549)" fill="#c08d4e"/>
      <path id="パス_131" data-name="パス 131" d="M-214.978,123.8a20.638,20.638,0,0,1,17.7,9.862c3.794,6.07,6.575,16.437,6.575,30.218,0,21.241-5.942,30.6-10.369,34.77a25.816,25.816,0,0,1-17.321,7.334c-6.954,0-13.527-3.037-18.206-10.115-2.781-4.552-7.08-14.288-7.08-28.828,0-16.057,3.54-26.552,8.092-32.62a24.933,24.933,0,0,1,14.035-9.736,23.345,23.345,0,0,1,6.447-.885Zm-2.528,4.552a11.214,11.214,0,0,0-7.46,3.033c-2.909,2.781-7.587,11.253-7.587,31.481,0,19.346,4.045,29.84,8.472,34.265,2.656,2.907,5.057,4.045,7.965,4.045a10.3,10.3,0,0,0,7.587-3.035c2.781-2.654,6.827-12.01,6.7-31.356-.126-14.033-1.01-27.436-7.206-34.642a10.126,10.126,0,0,0-8.344-3.792Z" transform="translate(350.788 -123.549)" fill="#c08d4e"/>
      <path id="パス_132" data-name="パス 132" d="M-210.331,156.935c.039,0,.081.079.081.238,0,.518-.2,2.635-.2,2.994,1.917,0,4.273-.2,5.67-.2.4,0,.439.12.439.439a5.122,5.122,0,0,1-.24,1.356c-.081.319-.28.361-.6.361-1.157.039-3.033.039-5.15.118-.12,0-.2.12-.239.56-.12,1.8-.081,5.948-.081,8.184,0,1.756,1.159,2.714,2.954,2.714a4.276,4.276,0,0,0,2.515-.879c.2-.12.28-.12.319.041a2.658,2.658,0,0,1,.12.757.5.5,0,0,1-.278.439,9.889,9.889,0,0,1-4.992,1.756,4.252,4.252,0,0,1-3.033-1.277c-.518-.639-.639-1.358-.56-2.915.081-2.156.081-7.664.16-8.782.041-.28-.16-.558-.359-.558-.56-.041-1.356-.041-1.636-.041-.081-.039-.319-.359-.2-.439,1.478-1.316,3.953-3.711,4.83-4.59a.7.7,0,0,1,.439-.278Z" transform="translate(375.378 -94.459)" fill="#c08d4e"/>
      <path id="パス_133" data-name="パス 133" d="M-209.434,179.518c-.12-.2-.081-.28.039-.361,2.115-.958,2.235-1.078,2.235-4.87V158.36c0-2.355-.079-2.395-1.476-3.672a.345.345,0,0,1,.039-.52c.6-.479,2.954-1.8,4.032-2.394a.55.55,0,0,1,.558.039c.081.081.081.2.081.439,0,2.515-.12,5.11-.12,7.944v5.867c0,.12.16.319.28.24.8-.319,3.153-1.437,4.192-1.8a6.779,6.779,0,0,1,2.2-.4c3.593,0,4.391,3.033,4.391,6.348,0,1.2-.12,3.951-.12,6.506,0,1.318.16,1.437,1.717,1.876.361.081.4.12.4.28v.639c0,.24-.039.28-.28.28h-2.834a39.775,39.775,0,0,0-4.032.238c-.16,0-.2-.079-.2-.558-.079-.479-.039-.56.081-.639s.759-.28,1.117-.439c.719-.359.879-.639,1-1.6a35.636,35.636,0,0,0,.16-4.511c0-3.713-.68-4.751-1.517-5.429a3.591,3.591,0,0,0-2.394-.759,8.758,8.758,0,0,0-3.752,1.078c-.361.16-.481.439-.481,1.238v4.273a28.341,28.341,0,0,0,.24,4.35c.12.958.28,1.159,2.075,1.358.16,0,.2.081.28.958-.039.319-.079.359-.2.359a49.4,49.4,0,0,0-7.146.28c-.239.039-.28.039-.319-.079Z" transform="translate(380.792 -99.039)" fill="#c08d4e"/>
    </g>
    <g id="グループ_135" data-name="グループ 135" transform="translate(-299.586 234.573)">
      <path id="パス_134" data-name="パス 134" d="M-287.871,182.722c.252,0,.323.18.432.539,1.078,3.486,1.831,5.283,3.089,8.661,1.151,3.2,4.06,9.989,4.528,11.1.755,1.69,1.256,2.336,3.305,2.731a2.306,2.306,0,0,1-.285,1.08c-2.984-.038-3.7-.038-4.888-.038-1.149,0-2.156.145-2.479.109-.145,0-.216-.036-.252-.109a3.74,3.74,0,0,1-.18-.933c1.833-.5,2.085-.755,1.653-2.158-.178-.717-1.33-3.628-1.8-4.778-.105-.252-.323-.539-.61-.539-2.586,0-5.642.036-7.762.143-.43.038-.61.145-.9.755a20.9,20.9,0,0,0-1.544,4.815c0,.791.285,1.078,2.083,1.617a1.832,1.832,0,0,1-.287,1.007c-1.762-.036-3.811-.036-4.564-.036-.61,0-1.187.036-1.33,0-.18,0-.216-.036-.252-.109a1.811,1.811,0,0,1-.18-1c1.546-.432,1.9-1.223,2.875-3.056,1.007-1.976,5.1-12.074,7.187-17.034.4-.969.61-1.579.826-2.156a.311.311,0,0,1,.214-.285,3.491,3.491,0,0,1,1.08-.325Zm-4.385,14.158c.218,0,.971.071,2.588.071,1.69,0,2.7-.036,3.666-.071.252,0,.361-.323.287-.5-1.4-3.809-2.12-5.929-3.234-8.8-.071-.143-.323-.071-.43.145-1.69,3.916-2.158,5.1-3.559,8.768-.038.143.18.394.648.394Z" transform="translate(300.112 -182.722)" fill="#c08d4e"/>
      <path id="パス_135" data-name="パス 135" d="M-285.813,201.431c1.114-.394,1.546-.648,1.653-1.617a37.936,37.936,0,0,0,.252-4.958c0-1.4-.071-2.7-.107-3.343,0-.361-.145-.5-1.8-.9-.143-.18-.216-.107-.071-.682,0-.109.109-.18.323-.252,1.546-.755,3.127-1.617,3.307-1.762a.725.725,0,0,1,.394-.107c.178,0,.359.107.359.252.038.61.071,1.294.071,1.9,0,.18.038.323.18.323a30.364,30.364,0,0,1,3.163-1.617,4.9,4.9,0,0,1,2.013-.5,3.639,3.639,0,0,1,2.443.791,4.936,4.936,0,0,1,1.579,3.557c.073.755.073,1.619.073,3.163,0,2.624.036,4.169.036,5,0,.323.036.361.145.361.323,0,1.365-.109,1.9-.145.107,0,.178.145.178.359a5.391,5.391,0,0,1-.143.862c-.073.18-.145.18-.287.18-3.2,0-4.276.145-5.642.145-.216,0-.4,0-.432-.145l-.178-.717c1.042-.361,1.437-.648,1.581-1.655a32.344,32.344,0,0,0,.214-4.958c0-1.978-.036-2.982-.862-3.882a3.125,3.125,0,0,0-2.408-.9,7.291,7.291,0,0,0-3.02.969,1,1,0,0,0-.394.864c-.071,1.256-.071,6.4-.071,8.337,0,.468.071.539,1.94.826.216.036.252.107.216.252l-.216.791h-3.056c-1.437,0-2.586.18-3.3.18-.073,0-.109-.073-.109-.216Z" transform="translate(312.536 -178.253)" fill="#c08d4e"/>
      <path id="パス_136" data-name="パス 136" d="M-275.634,201.431c1.114-.394,1.544-.648,1.653-1.617a38.253,38.253,0,0,0,.252-4.958c0-1.4-.073-2.7-.107-3.343,0-.361-.145-.5-1.8-.9-.143-.18-.216-.107-.071-.682,0-.109.107-.18.323-.252,1.546-.755,3.127-1.617,3.305-1.762a.73.73,0,0,1,.394-.107c.18,0,.361.107.361.252.036.61.071,1.294.071,1.9,0,.18.036.323.18.323a29.99,29.99,0,0,1,3.163-1.617,4.9,4.9,0,0,1,2.011-.5,3.632,3.632,0,0,1,2.443.791,4.937,4.937,0,0,1,1.581,3.557c.073.755.073,1.619.073,3.163,0,2.624.036,4.169.036,5,0,.323.036.361.145.361.323,0,1.363-.109,1.9-.145.109,0,.18.145.18.359a5.384,5.384,0,0,1-.143.862c-.073.18-.145.18-.287.18-3.2,0-4.278.145-5.642.145-.216,0-.4,0-.432-.145l-.178-.717c1.04-.361,1.435-.648,1.579-1.655a32.031,32.031,0,0,0,.216-4.958c0-1.978-.036-2.982-.862-3.882a3.126,3.126,0,0,0-2.41-.9,7.283,7.283,0,0,0-3.018.969,1,1,0,0,0-.394.864c-.071,1.256-.071,6.4-.071,8.337,0,.468.071.539,1.94.826.214.036.252.107.214.252l-.214.791h-3.056c-1.437,0-2.588.18-3.305.18-.073,0-.107-.073-.107-.216Z" transform="translate(321.473 -178.253)" fill="#c08d4e"/>
      <path id="パス_137" data-name="パス 137" d="M-263.54,194.593c-.038-.178-.252-.287-1.94-.575-.146-.036-.18-.107-.073-.287.252-.646.287-.719.468-.755,1.4-.466,2.659-1.007,4.239-1.546a.331.331,0,0,1,.18-.036c.073,0,.073.071.073.287-.145,2.443-.325,7.512-.325,9.379,0,1.833,0,2.481.038,2.913.071.5.143.717.5.682,1.114-.071,1.4-.071,1.51-.071s.323.216.287.323l-.107.933c-.038.216-.109.216-.289.216-1.04,0-2.047-.071-3.2-.071a28.305,28.305,0,0,0-3.125.216c-.178,0-.252-.036-.287-.18a3.379,3.379,0,0,1-.071-.826c0-.145.071-.18.18-.18,1.292-.143,1.579-.252,1.8-1.258a35.183,35.183,0,0,0,.252-5.354Zm2.083-11.067a1.58,1.58,0,0,1,1.546,1.653,1.815,1.815,0,0,1-1.8,1.94,1.588,1.588,0,0,1-1.579-1.653,1.88,1.88,0,0,1,1.8-1.94Z" transform="translate(330.362 -182.016)" fill="#c08d4e"/>
      <path id="パス_138" data-name="パス 138" d="M-254.454,188.564c0,.285-.071.359-.25.43a13.659,13.659,0,0,0-1.547.9c-.107.143-.178.25.146,1.33.466,1.472,1.9,5.82,2.477,6.971.073.214.216.143.325-.073a60.2,60.2,0,0,0,2.766-6.323,6.729,6.729,0,0,0,.539-1.726c.036-.394-.361-.646-1.653-.933-.145-.036-.109-.216.071-.575.107-.325.178-.361.325-.4,1.221,0,2.731-.107,3.735-.107a.527.527,0,0,1,.432.178,2.236,2.236,0,0,1,.216.4.442.442,0,0,1-.073.468c-1.976,2.586-4.383,7.724-5.858,10.889a17.3,17.3,0,0,0-.791,1.9c-.071.254-.143.361-.287.4a2.743,2.743,0,0,1-.753.107c-.216,0-.325-.214-.539-.755-.361-.824-1.833-5.1-3.487-9.557-.719-1.906-.862-2.443-2.083-2.8-.038,0,.323-1.042.468-1.042,1.51,0,4.383-.036,5.6-.178.145,0,.18,0,.216.143Z" transform="translate(334.678 -178.034)" fill="#c08d4e"/>
      <path id="パス_139" data-name="パス 139" d="M-245.069,187.869a4.578,4.578,0,0,1,2.982,1.294,5.736,5.736,0,0,1,1.439,2.372c.325-.071,1.007-.252,1.116-.107.105.071.105.178.071.323-.109.323-.361.971-.686,1.042-2.441.575-7.076,1.472-8.622,1.94-.18.036-.252.216-.252.648.107,3.557,2.011,5.029,4.383,5.029a6.352,6.352,0,0,0,4.276-1.76c.18-.145.61-.145.575-.038-.036.864-.107,1.116-.323,1.33a12.616,12.616,0,0,1-4.457,2.374,4.547,4.547,0,0,1-1.328.178,6.227,6.227,0,0,1-4.565-2.013,6.757,6.757,0,0,1-1.617-4.526,8.561,8.561,0,0,1,3.775-6.937,6.088,6.088,0,0,1,3.2-1.149Zm1.619,4.025a3.218,3.218,0,0,0-2.877-2.659,1.613,1.613,0,0,0-.9.361,4.929,4.929,0,0,0-1.583,4.025c1.655-.432,3.307-.719,4.924-1.114a.507.507,0,0,0,.432-.575Z" transform="translate(342.289 -178.203)" fill="#c08d4e"/>
      <path id="パス_140" data-name="パス 140" d="M-243.294,201.2c.828-.287,1.007-.361,1.08-.826.071-.432.071-1.4.071-4.528v-3.234c0-.864-.071-1.078-1.474-1.474a.773.773,0,0,1-.4-.791c1.367-.9,2.84-1.688,3.955-2.443a1.485,1.485,0,0,1,.43-.145c.145,0,.323.254.252.577-.036.933-.145,1.76-.107,2.838.717-.359,2.909-2.12,3.377-2.443a2,2,0,0,1,1.042-.5,2.088,2.088,0,0,1,1.978,1.69c0,.573-.9,1.617-1.223,1.9a1.192,1.192,0,0,1-.612.287.521.521,0,0,1-.466-.252,1.837,1.837,0,0,0-1.365-.826,4.317,4.317,0,0,0-2.41,1.221c-.25.216-.321.684-.321,2.372v4.492a4.156,4.156,0,0,0,.143,1.546c.107.178.254.287.648.252l1.94-.073a.292.292,0,0,1,.287.325l-.216,1.114h-4.744c-.933,0-1.831.071-2.085.071-.143,0-.214-.107-.107-.323Z" transform="translate(349.355 -178.304)" fill="#c08d4e"/>
      <path id="パス_141" data-name="パス 141" d="M-226.64,198.6a3.567,3.567,0,0,1-1.724,2.913,6.657,6.657,0,0,1-3.628.969,21.678,21.678,0,0,1-3.093-.323,1.567,1.567,0,0,0-1.221.071.662.662,0,0,1-.323-.071c-.107-.109-.107-.216-.071-.4a16.186,16.186,0,0,0,0-3.953c.036-.107.036-.178.109-.25a3.147,3.147,0,0,1,.862-.252,8.994,8.994,0,0,0,1.579,2.8,3.379,3.379,0,0,0,2.443,1.294,2.3,2.3,0,0,0,2.229-2.049c0-1.94-2.12-2.766-3.2-3.341-.9-.5-3.521-1.653-3.521-3.989a3.8,3.8,0,0,1,1.579-3.02,5.363,5.363,0,0,1,3.091-1.112c.862,0,1.581.107,2.372.107a1.809,1.809,0,0,0,.612-.071c.071-.036.143-.036.285.036.109.071.109.143.109.252a14.9,14.9,0,0,0,.682,3.593c0,.145-.252.323-.323.323-.575,0-.719-.036-1.042-.5-.5-.933-1.437-2.586-3.27-2.586a1.72,1.72,0,0,0-1.581,1.869c0,1.617,1.437,2.372,2.947,3.163.969.466,4.1,1.653,4.1,4.49Z" transform="translate(355.77 -178.185)" fill="#c08d4e"/>
      <path id="パス_142" data-name="パス 142" d="M-228.192,192.323a2.043,2.043,0,0,1-.646.107.633.633,0,0,1-.432-.466,1.652,1.652,0,0,1,.287-.828,12.408,12.408,0,0,1,4.2-2.873,5.806,5.806,0,0,1,1.976-.432,3.549,3.549,0,0,1,2.982,1.294,2.37,2.37,0,0,1,.685,1.724c0,2.552-.109,5.067-.109,7.439,0,1.906.323,2.588.9,2.588a6.537,6.537,0,0,0,1.762-.468c.109-.071.359.216.359.359l-.073.612a.5.5,0,0,1-.214.394,14.318,14.318,0,0,1-3.989.9c-.61,0-1.187-.359-1.472-1.867a36.529,36.529,0,0,1-4.565,1.8,3.427,3.427,0,0,1-2.049-.755,3.783,3.783,0,0,1-1-2.766c0-.791.539-1.365,1.544-1.869a21.832,21.832,0,0,1,6.182-1.94c.073-.468.073-1.833.073-2.588a3.962,3.962,0,0,0-.612-2.622,3.736,3.736,0,0,0-2.013-.541,4.565,4.565,0,0,0-1.437.216c-.145.109-.252.361-.252,1.546,0,.252,0,.359-.216.43Zm3.234,8.444a7.584,7.584,0,0,0,2.229-.753c.43-.287.717-.5.789-.935.038-.468.109-1.8.109-2.3,0-.254-.071-.432-.18-.432a9.926,9.926,0,0,0-4.239,1.365c-.218.143-.361.432-.361,1.078,0,1.223.361,1.976,1.617,1.976Z" transform="translate(362.03 -178.236)" fill="#c08d4e"/>
      <path id="パス_143" data-name="パス 143" d="M-220.563,201.2c.826-.287,1.007-.361,1.078-.826.071-.432.071-1.4.071-4.528v-3.234c0-.864-.071-1.078-1.472-1.474a.773.773,0,0,1-.4-.791c1.365-.9,2.84-1.688,3.953-2.443a1.512,1.512,0,0,1,.432-.145c.143,0,.323.254.252.577-.038.933-.145,1.76-.109,2.838.719-.359,2.911-2.12,3.379-2.443a2,2,0,0,1,1.042-.5,2.086,2.086,0,0,1,1.976,1.69c0,.573-.9,1.617-1.223,1.9a1.187,1.187,0,0,1-.61.287.521.521,0,0,1-.466-.252,1.84,1.84,0,0,0-1.367-.826,4.312,4.312,0,0,0-2.408,1.221c-.252.216-.323.684-.323,2.372v4.492a4.2,4.2,0,0,0,.143,1.546c.109.178.254.287.648.252l1.94-.073a.294.294,0,0,1,.289.325l-.218,1.114h-4.742c-.933,0-1.833.071-2.085.071-.145,0-.216-.107-.107-.323Z" transform="translate(369.313 -178.304)" fill="#c08d4e"/>
      <path id="パス_144" data-name="パス 144" d="M-204.882,188.994a2.186,2.186,0,0,1,.143-.755,28.812,28.812,0,0,0,3.379-.143c.648-.036,1.042-.036,1.221-.036.109,0,.252,0,.325.107a3.9,3.9,0,0,1,.285.935c-1.4.466-1.8,1.292-2.764,3.161-2.659,5.1-4.1,8.338-5.1,10.782-1.042,2.659-2.192,5.822-2.372,6.468a4.876,4.876,0,0,0-.214,1.546.509.509,0,0,1-.109.394,1.276,1.276,0,0,1-.755.216,2.564,2.564,0,0,1-1.615-.539.879.879,0,0,1-.145-1.149c.145-.252,3.414-6.254,3.628-6.9a2.976,2.976,0,0,0-.034-1.365c-1.116-3.595-2.12-6.648-3.7-10.924-.359-.933-.575-1.078-1.472-1.294-.252-.107-.289-.143-.289-.252a6.415,6.415,0,0,1,.18-.717c.109-.289.18-.289.432-.325,2.552,0,3.989-.143,5.247-.143.25,0,.359.036.4.107a2.757,2.757,0,0,1,.214.9c-1.8.539-2.011.648-1.69,1.869a79.061,79.061,0,0,0,2.659,8.085,60.265,60.265,0,0,0,3.559-7.8c.4-1.223.4-1.439-1.258-1.869-.143-.038-.143-.145-.143-.325Z" transform="translate(375.301 -178.034)" fill="#c08d4e"/>
    </g>
    <line id="線_8" data-name="線 8" x2="186.324" transform="translate(-300.07 222.152)" fill="none" stroke="#c08d4e" stroke-miterlimit="10" stroke-width="0.25"/>
  </g>
</svg>
