<?xml version="1.0" encoding="utf-8"?>
<!-- Generator: Adobe Illustrator 25.4.1, SVG Export Plug-In . SVG Version: 6.00 Build 0)  -->
<svg version="1.1" id="レイヤー_1" xmlns="http://www.w3.org/2000/svg" xmlns:xlink="http://www.w3.org/1999/xlink" x="0px"
	 y="0px" viewBox="0 0 267.4 35" width="267.4px" height="35px" style="enable-background:new 0 0 267.4 35;" xml:space="preserve">
<style type="text/css">
	.st0{fill:#C08D4E;}
	.st1{fill:none;stroke:#C08D4E;stroke-width:5.632098e-02;stroke-miterlimit:10;}
</style>
<g id="logo-sp" transform="translate(-375.617 -779.369)">
	<g>
		<path class="st0" d="M426.1,785.7c1.1,0.4,1.7,1,1.7,1.7c0,0.4-0.3,0.8-0.7,0.8c-0.3,0-0.4-0.2-0.5-0.6c-0.1-0.7-0.2-1.2-0.5-1.6
			c0,3,0.1,6.7,0.1,8.1c0,0.4-0.3,0.5-0.8,0.5c-0.4,0-0.6-0.1-0.6-0.5c0-0.8,0.1-3.9,0.1-7c-0.7,1.8-1.2,2.6-2.2,3.6
			c0,0.1-0.2,0-0.1-0.1c0.9-1.8,1.7-4.4,2.1-6.6H424c-0.3,0-0.6,0-1.1,0.1l-0.2-0.6c0.5,0.1,0.8,0.1,1.2,0.1h0.9V782
			c0-0.9,0-1.4-0.1-2c1.7,0.2,2,0.3,2,0.5c0,0.2-0.2,0.3-0.6,0.4v2.8h0.2c0.5-0.8,0.7-0.9,0.8-0.9c0.1,0,0.3,0.1,0.8,0.7
			c0.2,0.2,0.3,0.4,0.3,0.5c0,0.1,0,0.2-0.2,0.2h-1.9V785.7z M431,793.3c-1.3,0.7-2.7,1.2-4.4,1.3c-0.1,0-0.1-0.2,0-0.2
			c1-0.4,1.9-1,2.6-1.5c0.4-0.3,0.7-0.7,0.9-1c1.4,0.8,1.8,1.1,1.8,1.2C431.8,793.3,431.5,793.4,431,793.3z M429.5,791.5
			c0,0.4-0.3,0.6-0.8,0.6c-0.4,0-0.6-0.1-0.6-0.4c0-0.5,0-1.1,0-3.2c0-0.9,0-1.8-0.1-2.6c0.8,0.4,0.9,0.5,1.6,0.8h1.7v-1.5h-3.1
			c-0.3,0-0.5,0-0.9,0.1l-0.2-0.6c0.4,0.1,0.7,0.1,1,0.1h1.6v-2H429c-0.3,0-0.6,0-1,0.1l-0.2-0.6c0.4,0.1,0.7,0.1,1.1,0.1h1v-0.6
			c0-0.7,0-1.1-0.1-1.7c1.6,0.2,1.9,0.3,1.9,0.5c0,0.1-0.1,0.3-0.5,0.4v1.4h1.8v-0.6c0-0.6,0-1.1-0.1-1.7c1.7,0.2,1.9,0.3,1.9,0.5
			c0,0.1-0.1,0.2-0.5,0.4v1.4h0.7c0.6-0.7,0.7-0.9,0.9-0.9c0.1,0,0.3,0.1,0.9,0.6c0.3,0.2,0.4,0.4,0.4,0.5c0,0.1,0,0.2-0.2,0.2h-2.6
			v2h1.1c0.6-0.8,0.8-0.9,0.9-0.9c0.1,0,0.3,0.1,0.9,0.6c0.3,0.2,0.4,0.4,0.4,0.5c0,0.1,0,0.2-0.2,0.2h-4.7v1.5h1.9
			c0.5-0.6,0.7-0.7,0.8-0.7c0.2,0,0.3,0.1,0.9,0.6c0.3,0.2,0.4,0.4,0.4,0.5c0,0.1-0.1,0.3-0.5,0.5v0.7c0,1.7,0,2.9,0,3.3
			c0,0.4-0.2,0.6-0.8,0.6c-0.4,0-0.6-0.1-0.6-0.5v-0.1H429.5z M431.4,788.8V787h-1.9v1.8H431.4z M429.5,791.1h1.9v-1.9h-1.9V791.1z
			 M431.2,784.8h1.8v-2h-1.8V784.8z M436.1,794.7c-0.3,0-0.5-0.1-1.1-0.8c-0.7-0.8-1.3-1.2-2.2-1.6c-0.1,0,0-0.2,0.1-0.2
			c2.9,0.2,4,0.7,4,1.8C436.8,794.3,436.5,794.7,436.1,794.7z M434.8,787h-2v1.8h2V787z M434.8,789.2h-2v1.9h2V789.2z"/>
		<path class="st0" d="M441.4,786.8c-0.4,0-0.5-0.2-0.8-0.9c-0.2-0.6-0.5-0.9-1.1-1.4c-0.1,0,0-0.1,0.1-0.1c1.7,0.1,2.6,0.7,2.6,1.6
			C442.2,786.4,441.8,786.8,441.4,786.8z M442.2,789.8c-0.1,0.4-0.4,0.9-0.4,1.3c0,0.7,0.6,1.3,0.6,2.2c0,0.7-0.4,1.1-1,1.1
			c-0.5,0-0.8-0.3-0.8-0.8c0-0.5,0.1-1,0.1-1.6c0-1-0.1-1.2-1.2-1.6c-0.1,0,0-0.3,0-0.2c0.5,0.1,0.5,0.1,0.7,0.1
			c0.3,0,0.5-0.1,0.8-0.4c0.4-0.5,1.6-2.5,2.9-5.1c0-0.1,0.2,0,0.2,0.1C443.3,786.9,442.8,788.2,442.2,789.8z M442.9,783
			c-0.5,0-0.6-0.2-0.9-1c-0.3-0.6-0.5-0.9-1.1-1.4c-0.1,0,0-0.1,0.1-0.1c1.7,0.1,2.7,0.7,2.7,1.7C443.6,782.7,443.2,783,442.9,783z
			 M447.1,791.8c-1.3,1.4-2.5,2.2-4.3,2.7c-0.1,0-0.2-0.1-0.1-0.2c0.7-0.5,1.6-1.4,2.3-2.3c0.4-0.5,0.6-1,0.9-1.6
			c1.8,0.7,1.9,0.8,1.9,1C447.7,791.7,447.5,791.7,447.1,791.8z M444.9,783.6c0-0.8,0-1.2-0.1-2.1c0.8,0.4,0.9,0.5,1.7,0.9
			c1-0.3,2.4-0.9,3.4-1.4c0.7-0.4,1.2-0.7,1.4-1c1.4,1.1,1.7,1.4,1.7,1.6c0,0.1-0.1,0.2-0.3,0.2c-0.1,0-0.3,0-0.5-0.1
			c-1.4,0.4-3.3,0.8-5.7,1.1v2.2h5c0.7-0.9,0.9-1,1-1c0.1,0,0.3,0.1,1.1,0.7c0.3,0.3,0.5,0.4,0.5,0.5c0,0.1,0,0.2-0.2,0.2H451v4.2
			h0.9c0.7-0.9,0.9-1,1-1c0.1,0,0.3,0.1,1.1,0.7c0.3,0.3,0.5,0.4,0.5,0.5s0,0.2-0.2,0.2h-9.9c-0.3,0-0.7,0-1.1,0.1l-0.2-0.6
			c0.5,0.1,0.9,0.1,1.2,0.1h0.6V783.6z M449.5,789.5v-4.2h-3.1v4.2H449.5z M452.5,794.5c-0.4,0-0.6-0.2-0.9-0.8
			c-0.7-1.2-1.4-2-2.5-2.7c-0.1,0,0-0.2,0.1-0.2c2.9,0.7,4.1,1.6,4.1,2.8C453.3,794.1,453,794.5,452.5,794.5z"/>
		<path class="st0" d="M458.5,793.8c0,0.5-0.3,0.6-0.9,0.6c-0.4,0-0.6-0.2-0.6-0.5c0-1.4,0.1-2.7,0.1-8.3c0-1.8,0-3.6-0.1-5.5
			c0.8,0.4,1,0.4,1.8,0.9h9.8c0.6-0.7,0.8-0.8,0.9-0.8c0.2,0,0.3,0.1,0.9,0.6c0.3,0.3,0.4,0.4,0.4,0.5c0,0.2-0.1,0.3-0.5,0.5v1.9
			c0,5.1,0.1,8.7,0.1,9.8c0,0.5-0.3,0.7-1,0.7c-0.4,0-0.7-0.2-0.7-0.5v-0.5h-10.2V793.8z M468.8,781.4h-10.2V793h10.2V781.4z
			 M462.7,787h-1.8c-0.3,0-0.6,0-1,0.1l-0.2-0.6c0.4,0.1,0.8,0.1,1.1,0.1h1.9v-2.9h-2.2c-0.3,0-0.6,0-1,0.1l-0.2-0.6
			c0.5,0.1,0.8,0.1,1.2,0.1h5.3c0.6-0.7,0.8-0.9,0.9-0.9c0.1,0,0.3,0.1,1,0.6c0.3,0.2,0.4,0.4,0.4,0.5c0,0.1,0,0.2-0.2,0.2h-3.7v2.9
			h1.3c0.5-0.7,0.7-0.9,0.8-0.9c0.1,0,0.3,0.1,0.9,0.6c0.3,0.2,0.4,0.4,0.4,0.5s0,0.2-0.2,0.2h-3.2v3.8h2c0.6-0.8,0.7-0.9,0.9-0.9
			c0.1,0,0.3,0.1,1,0.7c0.3,0.2,0.4,0.4,0.4,0.5c0,0.1,0,0.2-0.2,0.2h-7.9c-0.3,0-0.6,0-1,0.1l-0.2-0.6c0.4,0.1,0.8,0.1,1.1,0.1h2.5
			V787z M466.3,789.9c-0.3,0-0.4-0.1-0.6-0.6c-0.3-0.7-0.5-1.1-1-1.5c-0.1,0,0-0.1,0.1-0.1c1.5,0.3,2.2,0.7,2.2,1.4
			C467,789.5,466.7,789.9,466.3,789.9z"/>
		<path class="st0" d="M480.5,793.1c0.8-1.9,1.6-4.4,2-6.3c0.2-0.7,0.3-1.4,0.3-1.9c1.6,0.5,2.3,0.8,2.3,1c0,0.2-0.2,0.3-0.7,0.4
			c-1.4,3.6-2.2,5-3.4,6.8h3.8c0.9-1.1,1.1-1.3,1.2-1.3c0.1,0,0.3,0.1,1.2,0.9c0.4,0.4,0.5,0.5,0.5,0.6c0,0.1,0,0.2-0.2,0.2h-13
			c-0.4,0-0.7,0-1.2,0.1l-0.2-0.6c0.5,0.1,0.9,0.1,1.3,0.1H480.5z M479.4,781.5c0-0.4,0-0.7-0.1-1.2c2,0.2,2.2,0.4,2.2,0.5
			c0,0.1-0.2,0.3-0.5,0.4v2.4h3.1c0.9-1,1.1-1.1,1.2-1.1c0.1,0,0.3,0.1,1.1,0.8c0.4,0.3,0.5,0.4,0.5,0.5c0,0.1,0,0.2-0.2,0.2h-11.3
			c-0.3,0-0.7,0-1.1,0.1l-0.2-0.6c0.5,0.1,0.9,0.1,1.3,0.1h4.2V781.5z M478,791.6c-0.5,0-0.7-0.3-0.8-1.5c-0.1-1.9-0.4-3.1-1.1-4.8
			c0-0.1,0.1-0.2,0.2-0.1c1.6,1.6,2.6,3.6,2.6,5C478.9,791.1,478.5,791.6,478,791.6z"/>
		<path class="st0" d="M497.6,785.1c0.5,2.2,1.4,3.9,3,5.3c1.1,1,2.5,1.8,4,2.2c0.1,0,0.1,0.2,0,0.2c-0.6,0.3-0.9,0.6-1.1,1.3
			c-0.1,0.2-0.1,0.3-0.2,0.3c-0.2,0-0.6-0.2-1-0.5c-0.8-0.6-1.9-1.6-2.6-2.4c-1.2-1.6-1.9-3.6-2.3-6c-0.3,2.4-0.9,4.1-2.2,5.7
			c-1.3,1.5-3,2.6-5.2,3.3c-0.1,0-0.2-0.2-0.1-0.2c2.5-1.3,4.1-3.1,5.1-5.4c0.4-1,0.7-2.2,0.9-3.8h-4.2c-0.4,0-0.9,0-1.4,0.1
			l-0.2-0.6c0.7,0.1,1.2,0.1,1.7,0.1h4.2c0.1-0.9,0.1-1.9,0.1-2.9c0-0.6,0-0.8-0.1-1.5c1.9,0.3,2.3,0.4,2.3,0.7
			c0,0.2-0.1,0.3-0.6,0.5c0,1.2,0,2.4-0.1,3.3h4.1c0.8-1.1,1-1.2,1.1-1.2c0.1,0,0.3,0.1,1.1,0.9c0.4,0.3,0.5,0.5,0.5,0.6
			c0,0.1,0,0.2-0.2,0.2H497.6z"/>
		<path class="st0" d="M515.7,783.4c0.3-0.5,0.7-1.2,1-1.8c0.2-0.5,0.4-1,0.6-1.4c1.4,0.7,1.9,0.9,1.9,1.1c0,0.2-0.2,0.3-0.7,0.3
			c-0.6,0.6-1.5,1.4-2.2,1.9h2.5c0.7-0.7,0.8-0.8,0.9-0.8c0.2,0,0.3,0.1,1,0.8c0.3,0.3,0.4,0.5,0.4,0.6c0,0.3-0.1,0.3-0.7,0.4
			c-0.3,0-0.3,0-0.4,0.1c-0.4,0.3-1,0.7-1.5,1c-0.1,0-0.2,0-0.1-0.1c0.2-0.4,0.4-0.9,0.5-1.6h-10.1c0.1,1.4-0.4,2.2-1.2,2.2
			c-0.5,0-0.8-0.4-0.8-0.8c0-0.4,0.1-0.6,0.5-0.8c0.8-0.4,1.1-0.7,1.2-1.7c0-0.1,0.1-0.1,0.2,0c0.1,0.3,0.1,0.5,0.2,0.8H515.7z
			 M512.9,788.7c0-0.5,0-0.7,0-1.2c0.6,0.1,1,0.2,1.3,0.2c0.8-0.7,1.2-1.2,1.6-1.8h-5.2c-0.3,0-0.5,0-0.9,0.1l-0.2-0.6
			c0.4,0.1,0.7,0.1,1,0.1h5.3c0.7-0.6,0.8-0.7,0.9-0.7c0.2,0,0.3,0.1,0.9,0.7c0.3,0.2,0.4,0.4,0.4,0.5c0,0.2-0.2,0.3-0.8,0.3
			c-1.1,0.8-1.7,1.1-2.5,1.5c0.3,0.1,0.3,0.1,0.3,0.3c0,0.2-0.1,0.3-0.6,0.5v0.5h3.9c0.8-1,1-1.1,1.1-1.1c0.1,0,0.3,0.1,1.2,0.8
			c0.4,0.3,0.5,0.4,0.5,0.6c0,0.1,0,0.2-0.2,0.2h-6.5v1.7c0,0.9,0,1.3,0,1.9c0,0.4-0.1,0.8-0.3,1c-0.3,0.4-0.8,0.6-1.6,0.6
			c-0.3,0-0.3-0.1-0.4-0.4c-0.1-0.6-0.5-0.8-1.8-1.2c-0.1,0-0.1-0.2,0-0.2c0.9,0.1,1.7,0.1,2.3,0.1c0.2,0,0.3-0.1,0.3-0.2v-3.3h-5
			c-0.3,0-0.6,0-1,0.1l-0.2-0.6c0.4,0.1,0.8,0.1,1.1,0.1h5.1V788.7z M510.6,783.3c-0.4,0-0.6-0.2-0.8-1c-0.2-0.7-0.4-1.2-0.9-1.7
			c0-0.1,0-0.2,0.1-0.2c1.7,0.5,2.4,1.1,2.4,1.9C511.5,782.9,511.1,783.3,510.6,783.3z M513.9,783c-0.5,0-0.6-0.2-0.7-1
			c-0.1-0.7-0.4-1.3-0.9-1.8c0-0.1,0-0.2,0.1-0.1c1.7,0.6,2.4,1.2,2.4,2.1C514.8,782.6,514.5,783,513.9,783z"/>
		<path class="st0" d="M426.2,808.8c0.8-0.3,1.5-0.6,2.2-0.8c0.1,0,0.2,0.1,0.1,0.2c-1.1,1-2.7,2-4.4,2.8c0,0.5-0.1,0.7-0.3,0.7
			c-0.2,0-0.4-0.4-1.1-1.9c0.4,0,0.9-0.2,1.4-0.3c0.2-0.1,0.5-0.1,0.7-0.2v-4.1h-0.7c-0.3,0-0.5,0-0.9,0.1l-0.2-0.6
			c0.4,0.1,0.7,0.1,1,0.1h0.7V801h-0.9c-0.3,0-0.5,0-0.9,0.1l-0.2-0.6c0.4,0.1,0.7,0.1,1,0.1h2.2c0.6-0.7,0.7-0.9,0.9-0.9
			c0.1,0,0.3,0.1,0.9,0.6c0.3,0.2,0.4,0.4,0.4,0.5s0,0.2-0.2,0.2h-1.8v3.8h0.1c0.4-0.7,0.6-0.8,0.7-0.8c0.1,0,0.3,0.1,0.8,0.6
			c0.2,0.2,0.3,0.3,0.3,0.4c0,0.1,0,0.2-0.2,0.2h-1.8V808.8z M433.3,809.2h1.1c0.8-0.9,1-1.1,1.1-1.1c0.1,0,0.3,0.1,1.1,0.7
			c0.3,0.3,0.4,0.4,0.4,0.5s0,0.2-0.2,0.2h-3.5v2.9h1.7c0.9-1,1.1-1.1,1.2-1.1c0.1,0,0.3,0.1,1.1,0.8c0.3,0.3,0.5,0.4,0.5,0.5
			s0,0.2-0.2,0.2H428c-0.3,0-0.6,0-1,0.1l-0.2-0.6c0.5,0.1,0.8,0.1,1.2,0.1h3.9v-2.9h-2.3c-0.3,0-0.6,0-1,0.1l-0.2-0.6
			c0.4,0.1,0.8,0.1,1.1,0.1h2.4v-2.6H430v0.4c0,0.4-0.3,0.6-0.9,0.6c-0.4,0-0.6-0.2-0.6-0.6c0-0.5,0.1-1.7,0.1-4.6
			c0-1,0-1.5-0.1-2.9c0.8,0.4,0.9,0.4,1.7,0.8h5c0.5-0.6,0.7-0.7,0.8-0.7c0.2,0,0.3,0.1,0.9,0.6c0.3,0.2,0.4,0.4,0.4,0.5
			c0,0.2-0.1,0.3-0.6,0.6v0.9c0,2.4,0.1,4.1,0.1,4.7c0,0.4-0.3,0.6-0.9,0.6c-0.4,0-0.6-0.1-0.6-0.5v-0.3h-2V809.2z M431.8,803.2
			v-2.5H430v2.5H431.8z M431.8,806.2v-2.6H430v2.6H431.8z M435.2,803.2v-2.5h-2v2.5H435.2z M435.2,806.2v-2.6h-2v2.6H435.2z"/>
		<path class="st0" d="M446,801.6h-3.3c-0.4,0-0.9,0-1.5,0.1l-0.2-0.6c0.7,0.1,1.2,0.1,1.7,0.1h7.6c0.9-1.1,1.1-1.2,1.2-1.2
			c0.1,0,0.3,0.1,1.2,0.8c0.4,0.3,0.5,0.5,0.5,0.6s0,0.2-0.2,0.2h-5.3v10h3.5c1-1.1,1.1-1.3,1.3-1.3c0.1,0,0.3,0.1,1.2,0.9
			c0.4,0.3,0.6,0.5,0.6,0.6c0,0.1,0,0.2-0.2,0.2h-12.4c-0.5,0-0.9,0-1.6,0.1l-0.2-0.6c0.7,0.1,1.2,0.1,1.7,0.1h4.5V801.6z"/>
		<path class="st0" d="M461.3,810c-1,1.3-2.5,2.5-4.2,3.1c-0.1,0-0.2-0.1-0.1-0.2c0.9-0.8,1.7-1.7,2.3-2.6c0.3-0.5,0.6-1.1,0.8-1.6
			c1.4,0.6,1.8,0.8,1.8,1C462,809.8,461.8,809.9,461.3,810z M462.9,807.9c-1.2,0.1-2.6,0.3-4.6,0.4c-0.1,0.4-0.2,0.6-0.4,0.6
			c-0.2,0-0.3-0.1-0.7-2.1c0.9,0.2,1.5,0.2,3,0.2c0.5,0,1,0,1.5,0c1.1-0.9,2.2-2.1,3.1-3.3c0.4-0.6,0.8-1.1,1-1.6
			c1.3,0.6,1.8,0.9,1.8,1.1c0,0.2-0.2,0.3-0.7,0.3c-1.8,1.7-3,2.6-4.5,3.5c1.8,0,3.6-0.2,5.5-0.3c-0.3-0.4-0.7-0.8-1.2-1.2
			c-0.1,0,0-0.2,0.1-0.2c2.1,0.5,3.2,1.4,3.2,2.4c0,0.5-0.3,0.9-0.8,0.9c-0.3,0-0.5-0.2-0.7-0.6c-0.1-0.3-0.3-0.6-0.4-0.9
			c-1.3,0.2-2.5,0.5-3.8,0.6v1.7c0,1.4,0,3.1,0,3.7c0,0.5-0.3,0.7-0.9,0.7c-0.5,0-0.7-0.1-0.7-0.6c0-0.2,0-0.8,0-2.1V807.9z
			 M461.8,802.5c0.2-0.3,0.3-0.6,0.4-1c-1.4,0.1-3,0.1-4.7,0.1c-0.1,0-0.1-0.2,0-0.2c2.7-0.2,5.5-0.7,7.5-1.4c1.1-0.3,2-0.7,2.5-1.1
			c1.2,0.8,1.6,1.2,1.6,1.4c0,0.2-0.2,0.3-0.9,0.2c-1.6,0.5-3.4,0.8-5.4,1c1.1,0.4,1.2,0.5,1.2,0.7c0,0.2-0.1,0.2-0.7,0.3
			c-0.4,0.5-1.1,1-1.7,1.4c0.5,0.4,0.7,0.8,0.7,1.2c0,0.5-0.3,0.9-0.8,0.9c-0.4,0-0.5-0.1-0.9-1c-0.3-0.7-0.9-1.5-1.4-1.8
			c-0.1,0,0-0.2,0.1-0.2c0.7,0.2,1.3,0.4,1.7,0.6C461.4,803.2,461.6,802.8,461.8,802.5z M468.7,812.5c-0.4,0-0.6-0.1-0.9-0.9
			c-0.6-1.2-1-1.8-2-2.7c-0.1,0,0-0.2,0.1-0.2c2.3,0.7,3.8,1.8,3.8,2.8C469.6,812.1,469.2,812.5,468.7,812.5z"/>
		<path class="st0" d="M475.2,810c-0.5,1.1-1.2,2-2.2,2.9c-0.1,0-0.2,0-0.2-0.1c0.8-1.4,1.3-2.5,1.5-3.9c0.2-1,0.2-2.1,0.2-3.4
			c0-0.6,0-1,0-2c0.7,0.3,0.8,0.4,1.5,0.7h3.6c0.4-0.5,0.6-0.6,0.7-0.6c0.2,0,0.3,0.1,0.8,0.5c0.2,0.2,0.3,0.3,0.3,0.4
			c0,0.1-0.1,0.2-0.4,0.4v0.9c0,0.8,0,1.4,0,2.2c0,0.4-0.3,0.6-0.8,0.6c-0.4,0-0.6-0.1-0.6-0.5v-0.2h-4c0,0.4-0.1,0.7-0.2,1.1
			c0.4,0.2,0.6,0.3,1.1,0.5h3.1c0.5-0.5,0.6-0.6,0.7-0.6c0.2,0,0.3,0.1,0.8,0.5c0.2,0.2,0.3,0.3,0.3,0.4c0,0.1-0.1,0.2-0.4,0.4v0.4
			c0,1.1,0,1.9,0,2.2c0,0.4-0.3,0.5-0.8,0.5c-0.4,0-0.6-0.1-0.6-0.4v-0.3h-3.3v0.5c0,0.4-0.3,0.5-0.8,0.5c-0.4,0-0.6-0.1-0.6-0.4
			c0-0.4,0-0.8,0-2.5V810z M475.9,802.5c-0.9,0.7-1.8,1.2-2.9,1.6c-0.1,0-0.2-0.1-0.1-0.2c1.3-0.9,2.4-2,3.2-3.2
			c0.4-0.6,0.7-1.2,0.9-1.8c1.6,0.6,1.8,0.7,1.8,0.9c0,0.2-0.2,0.3-0.6,0.3l-0.1,0.1c2.4,0.6,3.5,1.2,3.5,2c0,0.4-0.2,0.7-0.6,0.7
			c-0.2,0-0.4-0.1-0.7-0.5c-0.8-1-1.5-1.5-2.4-2C477.4,801.2,476.7,801.9,475.9,802.5c0.4,0,0.6,0.1,0.8,0.1h1.4
			c0.4-0.6,0.6-0.7,0.7-0.7c0.1,0,0.3,0.1,0.8,0.5c0.2,0.2,0.4,0.3,0.4,0.4c0,0.1,0,0.2-0.2,0.2h-3.1c-0.2,0-0.4,0-0.7,0.1
			L475.9,802.5z M475.9,806.2c0,0.5-0.1,0.9-0.1,1.4h3.9v-1.4H475.9z M479.7,804.5h-3.8c0,0.5,0,0.9,0,1.3h3.8V804.5z M479.9,809.9
			h-3.3v2.4h3.3V809.9z M483.9,802.7c0,3.4,0.1,5.8,0.1,6.6c0,0.4-0.3,0.7-0.8,0.7c-0.5,0-0.6-0.2-0.6-0.6c0-0.5,0.1-1.8,0.1-4.7
			c0-2.5,0-3-0.1-4.2c1.6,0.2,1.9,0.2,1.9,0.5c0,0.1-0.1,0.3-0.5,0.4V802.7z M485.4,800.7c0-0.6,0-0.8-0.1-1.3
			c1.9,0.2,1.9,0.3,1.9,0.5c0,0.2-0.1,0.3-0.4,0.4v5.8c0,2.9,0.1,5,0.1,5.8c0,0.7-0.1,1-0.5,1.3c-0.4,0.2-0.8,0.4-1.2,0.4
			c-0.4,0-0.5-0.1-0.5-0.4c-0.1-0.6-0.4-0.8-1.6-1.2c-0.1,0-0.1-0.2,0-0.2c0.7,0.1,1.5,0.1,2.1,0.1c0.2,0,0.3,0,0.3-0.2V800.7z"/>
		<path class="st0" d="M497.2,812.2c0.8-1.9,1.6-4.4,2-6.3c0.2-0.7,0.3-1.4,0.3-1.9c1.6,0.5,2.3,0.8,2.3,1c0,0.2-0.2,0.3-0.7,0.4
			c-1.4,3.6-2.2,5-3.4,6.8h3.8c0.9-1.1,1.1-1.3,1.2-1.3c0.1,0,0.3,0.1,1.2,0.9c0.4,0.4,0.5,0.5,0.5,0.6s0,0.2-0.2,0.2h-13
			c-0.4,0-0.7,0-1.2,0.1l-0.2-0.6c0.5,0.1,0.9,0.1,1.3,0.1H497.2z M496.2,800.6c0-0.4,0-0.7-0.1-1.2c2,0.2,2.2,0.4,2.2,0.5
			c0,0.1-0.2,0.3-0.5,0.4v2.4h3.1c0.9-1,1.1-1.1,1.2-1.1c0.1,0,0.3,0.1,1.1,0.8c0.4,0.3,0.5,0.4,0.5,0.5c0,0.1,0,0.2-0.2,0.2H492
			c-0.3,0-0.7,0-1.1,0.1l-0.2-0.6c0.5,0.1,0.9,0.1,1.3,0.1h4.2V800.6z M494.7,810.7c-0.5,0-0.7-0.3-0.8-1.5
			c-0.1-1.9-0.4-3.1-1.1-4.8c0-0.1,0.1-0.2,0.2-0.1c1.6,1.6,2.6,3.6,2.6,5C495.6,810.2,495.2,810.7,494.7,810.7z"/>
		<path class="st0" d="M507.7,802.3c-0.2,0-0.2,0-0.3-0.2c0-0.2,0-0.2,0.1-0.3c0.9-0.3,2.3-0.9,3.4-1.4c0.1,0,0.3,0.1,0.3,0.2
			c0,1.3-0.1,2.2-0.1,3.5v5c0,1.6,0,1.8,0.2,2.1c0.2,0.3,0.7,0.4,1.4,0.4c0.1,0,0.1,0.1,0.1,0.2c0,0.2,0,0.2-0.1,0.2
			c-0.7,0-1.6,0-2.4,0c-0.8,0-1.7,0-2.4,0c-0.1,0-0.2,0-0.2-0.2c0-0.2,0-0.2,0.2-0.2c0.7,0,1.2-0.1,1.4-0.4c0.2-0.4,0.2-1.1,0.2-2.1
			v-5.7c0-0.6,0-1.1-0.2-1.2c-0.1-0.2-0.4-0.2-0.9,0L507.7,802.3z"/>
		<path class="st0" d="M522.7,806.4c0,3.7-1.3,6-3.5,6c-2.3,0-3.6-2.2-3.6-5.9c0-3.7,1.3-6,3.6-6
			C521.3,800.5,522.7,802.8,522.7,806.4z M517.4,806.4c0,3.3,0.3,5.4,1.7,5.4c1.3,0,1.7-2.1,1.7-5.4c0-3.3-0.3-5.5-1.7-5.5
			C517.8,801,517.4,803.1,517.4,806.4z"/>
		<path class="st0" d="M531.8,806.4c0,3.7-1.3,6-3.5,6c-2.3,0-3.6-2.2-3.6-5.9c0-3.7,1.3-6,3.6-6
			C530.5,800.5,531.8,802.8,531.8,806.4z M526.5,806.4c0,3.3,0.3,5.4,1.7,5.4c1.3,0,1.7-2.1,1.7-5.4c0-3.3-0.3-5.5-1.7-5.5
			C526.9,801,526.5,803.1,526.5,806.4z"/>
		<path class="st0" d="M545.6,800.3c0.7-0.7,0.8-0.8,0.9-0.8c0.2,0,0.3,0.1,0.9,0.6c0.3,0.2,0.4,0.3,0.4,0.5c0,0.2,0,0.2-0.4,0.5
			v1.8c0,8.2,0,8.8,0,9.1c0,0.8-0.1,1-0.6,1.3c-0.4,0.3-0.9,0.4-1.2,0.4c-0.3,0-0.3,0-0.4-0.4c-0.1-0.6-0.4-0.8-1.8-1.2
			c-0.1,0-0.1-0.2,0-0.2c0.8,0.1,1.4,0.1,2.1,0.1c0.2,0,0.3,0,0.3-0.3v-11h-8.9v0.7c0,3.8-0.1,6.3-0.5,8.2c-0.4,1.9-1.2,2.9-2.5,4.2
			c-0.1,0-0.2-0.1-0.2-0.1c0.7-1.3,1.2-2.5,1.4-4.4c0.2-1.4,0.2-3.2,0.2-5.7c0-2,0-3.1-0.1-4.1c0.8,0.4,1,0.5,1.8,0.9H545.6z
			 M541.8,805.4h1.5c0.6-0.7,0.8-0.8,0.9-0.8c0.1,0,0.3,0.1,0.9,0.6c0.2,0.2,0.4,0.3,0.4,0.4s0,0.2-0.2,0.2h-7c-0.2,0-0.4,0-0.7,0.1
			l-0.2-0.6c0.3,0.1,0.6,0.1,0.8,0.1h2.2v-2h-1.7c-0.2,0-0.4,0-0.7,0.1l-0.2-0.6c0.3,0.1,0.6,0.1,0.8,0.1h1.7v-0.7
			c0-0.3,0-0.7-0.1-1.3c1.8,0.2,1.9,0.3,1.9,0.5c0,0.1-0.1,0.3-0.4,0.4v1.1h1c0.5-0.6,0.7-0.7,0.8-0.7c0.1,0,0.3,0.1,0.8,0.5
			c0.2,0.2,0.4,0.3,0.4,0.4s0,0.2-0.2,0.2h-2.8V805.4z M539.5,810.7v0.5c0,0.4-0.2,0.6-0.8,0.6c-0.5,0-0.6-0.1-0.6-0.5
			c0-0.5,0.1-1,0.1-3c0-0.5,0-1.1,0-1.6c0.7,0.3,0.8,0.4,1.5,0.8h2.9c0.5-0.5,0.6-0.6,0.7-0.6c0.2,0,0.3,0.1,0.8,0.5
			c0.2,0.2,0.3,0.3,0.3,0.4c0,0.1,0,0.1-0.4,0.4v0.4c0,1.2,0,2,0,2.3c0,0.4-0.3,0.6-0.8,0.6c-0.4,0-0.6-0.1-0.6-0.5v-0.2H539.5z
			 M542.6,807.7h-3.1v2.6h3.1V807.7z"/>
		<path class="st0" d="M562,808.7c0.9-1.1,1.1-1.2,1.2-1.2c0.1,0,0.3,0.1,1.2,0.8c0.4,0.3,0.5,0.5,0.5,0.6c0,0.1,0,0.2-0.2,0.2h-5.5
			c0,1.7,0,3.2,0,3.9c0,0.5-0.3,0.7-1,0.7c-0.5,0-0.7-0.1-0.7-0.6s0.1-1.6,0.1-4.1H552c-0.4,0-0.7,0-1.2,0.1l-0.2-0.6
			c0.5,0.1,0.9,0.1,1.3,0.1h1.4v-2.2c0-0.8,0-1.6-0.1-2.4c0.8,0.3,0.9,0.4,1.7,0.8h2.6V802h-2.9c-1,1.5-2.1,2.6-3.6,3.5
			c-0.1,0-0.2-0.1-0.2-0.1c1.1-1.1,2.1-2.9,2.8-4.6c0.3-0.7,0.4-1.3,0.5-1.8c1.7,0.5,2.1,0.7,2.1,1c0,0.2-0.2,0.3-0.7,0.4
			c-0.2,0.5-0.5,0.9-0.7,1.4h6.8c0.8-1,1-1.1,1.1-1.1c0.1,0,0.3,0.1,1.1,0.8c0.4,0.3,0.5,0.4,0.5,0.5s0,0.2-0.2,0.2h-5v2.9h1.9
			c0.8-0.9,0.9-1,1.1-1c0.2,0,0.3,0.1,1.1,0.7c0.4,0.3,0.5,0.4,0.5,0.5c0,0.1-0.1,0.2-0.2,0.2h-4.3v0.6c0,0.9,0,1.9,0,2.9H562z
			 M557.6,805.3h-2.8v3.4h2.8V805.3z"/>
		<path class="st0" d="M571.9,802.3c0.7-0.8,0.9-1,1-1c0.1,0,0.3,0.1,1,0.7c0.3,0.3,0.4,0.4,0.4,0.5c0,0.1,0,0.2-0.2,0.2h-5.6
			c-0.3,0-0.7,0-1.1,0.1l-0.2-0.6c0.5,0.1,0.9,0.1,1.3,0.1H571.9z M569.5,812.6v0.4c0,0.4-0.3,0.6-0.8,0.6c-0.4,0-0.7-0.1-0.7-0.5
			c0-0.5,0.1-1,0.1-3c0-0.7,0-1.5-0.1-2.2c0.8,0.3,0.9,0.4,1.7,0.8h1.9c0.6-0.7,0.7-0.8,0.8-0.8c0.2,0,0.3,0.1,0.9,0.6
			c0.3,0.2,0.4,0.3,0.4,0.5c0,0.1-0.1,0.3-0.5,0.5v0.6c0,1.5,0.1,2.5,0.1,2.9c0,0.4-0.3,0.6-0.8,0.6c-0.4,0-0.7-0.2-0.7-0.5v-0.4
			H569.5z M571,800.2c0.7-0.8,0.9-1,1-1c0.1,0,0.3,0.1,1,0.7c0.3,0.3,0.4,0.4,0.4,0.5c0,0.1,0,0.2-0.2,0.2h-4.1
			c-0.3,0-0.6,0-0.9,0.1l-0.2-0.6c0.4,0.1,0.8,0.1,1.1,0.1H571z M571.2,804.5c0.6-0.7,0.8-0.9,0.9-0.9c0.1,0,0.3,0.1,0.9,0.6
			c0.3,0.2,0.4,0.4,0.4,0.5s0,0.2-0.2,0.2h-4.1c-0.3,0-0.6,0-1,0.1l-0.2-0.6c0.5,0.1,0.8,0.1,1.1,0.1H571.2z M571.2,806.5
			c0.6-0.8,0.8-0.9,0.9-0.9c0.1,0,0.3,0.1,1,0.6c0.3,0.2,0.4,0.4,0.4,0.5s0,0.2-0.2,0.2h-4.1c-0.3,0-0.6,0-1,0.1l-0.2-0.6
			c0.4,0.1,0.8,0.1,1.1,0.1H571.2z M571.7,809h-2.2v3.2h2.2V809z M579.4,800.7h-3.8c-0.3,0-0.7,0-1.2,0.1l-0.2-0.6
			c0.5,0.1,0.9,0.1,1.3,0.1h3.6c0.6-0.7,0.7-0.8,0.8-0.8c0.2,0,0.3,0.1,0.9,0.6c0.3,0.2,0.4,0.4,0.4,0.5c0,0.1-0.1,0.2-0.5,0.5v0.8
			c0,2.1,0.1,3.6,0.1,4.1c0,0.5-0.3,0.7-0.9,0.7c-0.5,0-0.7-0.2-0.7-0.5v-0.7h-3.6v5.6c0,0.6,0.4,0.7,2.1,0.7c1.5,0,2.1-0.1,2.3-0.3
			c0.3-0.3,0.5-0.7,1-2.3c0-0.1,0.2,0,0.2,0c0,0.6-0.1,1.4-0.1,1.8c0,0.3,0,0.3,0.3,0.4c0.2,0.1,0.3,0.3,0.3,0.5c0,0.5-0.3,0.8-1,1
			c-0.6,0.2-1.6,0.2-3.1,0.2c-2.7,0-3.5-0.4-3.5-2c0-0.7,0-1.6,0-3.7c0-1.7,0-2.1-0.1-3.2c0.8,0.4,0.9,0.4,1.7,0.8h3.4V800.7z"/>
		<path class="st0" d="M583.9,805.7c-0.1,0-0.2-0.2-0.1-0.2c1.8-1,3.7-2.6,5-4.2c0.7-0.9,1.2-1.7,1.4-2.5c1.8,0.7,2.1,0.8,2.1,1
			c0,0.1-0.2,0.2-0.5,0.3c1,1.1,2.1,2,3.4,2.6c1.2,0.6,2.5,1,3.8,1.2c0.1,0,0.1,0.2,0,0.2c-0.5,0.1-0.7,0.3-1,1.1
			c-0.1,0.3-0.1,0.4-0.3,0.4c-0.2,0-0.5-0.1-0.8-0.3c-0.8-0.4-2-1.2-2.7-1.8c-0.9-0.8-1.8-1.8-2.7-3.2
			C589.7,802.8,586.9,804.8,583.9,805.7z M586.7,810.3c0,1.5-0.6,2.5-1.6,2.5c-0.5,0-0.9-0.3-0.9-0.8c0-0.4,0.2-0.6,0.7-0.9
			c1-0.4,1.3-0.8,1.4-2c0-0.1,0.2-0.1,0.2,0C586.6,809.5,586.7,809.9,586.7,810.3z M593.6,805.5c0.6-0.6,0.7-0.7,0.8-0.7
			c0.2,0,0.3,0.1,0.9,0.6c0.3,0.2,0.4,0.4,0.4,0.5c0,0.2-0.1,0.3-0.5,0.4c-0.4,0.8-0.8,1.5-1.2,2.1c-0.2,0.3-0.4,0.3-0.6,0.3
			c-0.5,0-1.1-0.3-1.1-0.6c0-0.1,0.1-0.2,0.1-0.3c0.5-0.5,0.9-1.2,1.3-2h-5.8c-0.7,0-0.9,0-1.4,0.1l-0.2-0.6
			c0.5,0.1,0.8,0.1,1.5,0.1H593.6z M589.4,811.7c0,0.5,0.2,0.5,2,0.5c1,0,1.6,0,2-0.2c0.5-0.2,0.7-0.8,1.1-2c0-0.1,0.2,0,0.2,0
			c0,0.4,0,0.9,0,1.3c0,0.4,0,0.4,0.4,0.6c0.2,0.1,0.3,0.3,0.3,0.5c0,0.4-0.2,0.6-0.8,0.8c-0.6,0.2-1.7,0.3-3.3,0.3
			c-2.8,0-3.2-0.3-3.2-1.8c0-0.2,0-0.5,0-1.5c0-0.5,0-1.1-0.1-1.6c1.8,0.2,2,0.2,2,0.5c0,0.1-0.1,0.2-0.5,0.4V811.7z M591.7,803.7
			c0.6-0.7,0.7-0.8,0.9-0.8c0.1,0,0.3,0.1,0.9,0.6c0.3,0.2,0.4,0.3,0.4,0.4s0,0.2-0.2,0.2h-4.1c-0.3,0-0.6,0-0.9,0.1l-0.2-0.6
			c0.4,0.1,0.8,0.1,1.1,0.1H591.7z M592,810.9c-0.4,0-0.6-0.1-0.8-1c-0.2-0.6-0.5-1-1.1-1.6c-0.1,0,0-0.1,0.1-0.1
			c1.8,0.4,2.6,0.9,2.6,1.8C592.8,810.5,592.5,810.9,592,810.9z M597.2,812.7c-0.5,0-0.7-0.3-0.8-1.2s-0.5-1.6-1-2.3
			c0-0.1,0-0.2,0.1-0.1c1.8,0.7,2.6,1.6,2.6,2.6C598,812.3,597.7,812.7,597.2,812.7z"/>
		<path class="st0" d="M611.9,804.1c0.1-0.1,0.4-0.2,0.6-0.2c0.4,0,1,0.2,1.4,0.5c0.2,0.1,0.3,0.3,0.3,0.5c0,0.2-0.2,0.5-0.5,0.5
			c-0.1,0-0.4,0-0.8-0.1c-0.5-0.1-0.9-0.1-1.6-0.1c-0.3,0-0.6,0-1,0c-0.1,1.9-0.4,3.5-1.1,4.6c-0.9,1.4-2.3,2.5-4.6,3.1
			c-0.2,0-0.4,0.1-0.5,0.1c-0.1,0-0.2,0-0.2-0.1c0,0,0-0.1,0.1-0.1c1.7-0.6,3.3-1.9,4.1-3.5c0.5-1,0.8-2.3,0.8-3.9
			c-0.9,0-1.8,0.1-3,0.3c0,0.9,0,1.8,0,2.6c0,0.7-0.4,0.9-0.6,0.9c-0.5,0-0.7-0.2-0.7-0.8c0-0.6,0.1-1.5,0.1-2.6
			c-0.4,0.1-0.8,0.1-1.1,0.2c-0.3,0.1-0.6,0.2-0.7,0.3c-0.2,0.2-0.4,0.2-0.6,0.2c-0.3,0-0.6-0.2-1.1-0.6c-0.4-0.4-0.5-0.8-0.5-1
			c0-0.2,0-0.3,0.1-0.3c0,0,0.1,0.1,0.2,0.1c0.4,0.3,0.7,0.5,1.2,0.5c0.2,0,0.7,0,1.1-0.1c0.5-0.1,0.8-0.1,1.3-0.2
			c0-0.6,0-1.1,0-1.6c0-0.3,0-0.5-0.2-0.7s-0.5-0.4-0.8-0.4c-0.1,0-0.2-0.1-0.2-0.1s0.1-0.2,0.2-0.2c0.2-0.1,0.4-0.2,0.7-0.2
			c0.4,0,1,0.2,1.4,0.4c0.4,0.2,0.5,0.4,0.5,0.6c0,0.2-0.1,0.3-0.1,0.4c-0.1,0.1-0.1,0.3-0.1,0.6c0,0.3,0,0.6,0,1.1
			c1.2-0.1,1.9-0.2,3-0.3c0-0.7,0-1.2,0-1.7c0-0.8,0-1.1-0.1-1.3c-0.1-0.1-0.2-0.3-0.4-0.4c-0.2-0.1-0.4-0.1-0.5-0.2
			c-0.1,0-0.2-0.1-0.2-0.1s0.1-0.2,0.2-0.3c0.2-0.1,0.3-0.2,0.6-0.2c0.3,0,0.7,0.1,1.3,0.2c0.5,0.2,0.8,0.5,0.8,0.7
			c0,0.2-0.1,0.3-0.2,0.5c-0.1,0.2-0.1,0.3-0.1,0.5c0,0.9,0,1.5-0.1,2.2c0.3,0,0.6,0,0.9-0.1C611.6,804.2,611.8,804.2,611.9,804.1z"
			/>
		<path class="st0" d="M616.9,809.3c-0.2,0.1-0.3,0.2-0.4,0.2c-0.1,0-0.2-0.1-0.2-0.2c0-0.1,0.1-0.2,0.3-0.3
			c1.9-1.4,3.8-3.4,5.1-4.9c1.2-1.4,1.7-2.1,1.9-2.5c0.2-0.4,0.3-0.5,0.3-0.7c0-0.1-0.2-0.3-0.5-0.5c-0.2-0.1-0.3-0.1-0.3-0.2
			c0-0.1,0.3-0.4,0.7-0.4c0.4,0,1.1,0.2,1.7,0.6c0.4,0.3,0.7,0.6,0.7,0.9c0,0.3-0.2,0.4-0.5,0.6c-0.2,0-0.2,0.1-0.3,0.2
			c-0.9,1-1.7,1.8-2.2,2.4c0.6,0.4,1,0.8,1,1.1c0,0.1,0,0.2-0.1,0.3c0,0.1,0,0.3,0,0.5c0,0.7,0,1.4,0,2.3c0,1.2,0,2.4,0,3.6
			c0,0.5-0.3,0.7-0.6,0.7c-0.3,0-0.6-0.1-0.7-0.3c-0.2-0.3-0.3-0.7-0.3-1c0-0.1,0-0.3,0.1-0.4c0.1-0.4,0.2-1,0.2-1.5
			c0-1.2,0-2.7,0-3.7c0-0.7,0-0.8-0.1-1C620.6,806.9,618.8,808.3,616.9,809.3z"/>
		<path class="st0" d="M636.3,805.5c1,0.4,1.5,0.9,1.5,1.6c0,0.5-0.4,0.8-0.7,0.8c-0.3,0-0.6-0.1-0.9-0.5c-0.4-0.4-0.7-0.8-1.1-1.2
			c-0.5-0.4-1.1-0.7-1.7-0.9c0,0.9,0,1.8,0,2.8c0,0.7,0,2.1,0.1,3.9c0,0.6-0.3,0.7-0.6,0.7c-0.2,0-0.5-0.1-0.7-0.4
			c-0.3-0.4-0.4-1-0.4-1.3c0-0.1,0-0.4,0.1-0.5c0-0.1,0.1-0.2,0.1-0.3c0-0.2,0-0.7,0.1-3.6c0-1.5,0-2.9,0-4.4c0-0.4,0-1.1-0.1-1.4
			c0-0.1-0.2-0.3-0.3-0.4c-0.2-0.1-0.4-0.2-0.6-0.3c-0.1,0-0.2-0.1-0.2-0.1c0-0.1,0.1-0.2,0.2-0.2c0.1-0.1,0.3-0.1,0.4-0.1
			c0.4,0,0.8,0.1,1.6,0.4c0.4,0.2,0.6,0.4,0.6,0.7c0,0.2-0.1,0.4-0.3,0.5c-0.1,0.1-0.1,0.2-0.1,0.3c0,0.4-0.1,1.4-0.1,2.9
			C634.4,805,635.4,805.2,636.3,805.5z"/>
	</g>
	<g id="logo" transform="translate(300.711 -123.668)">
		<g id="グループ_134" transform="translate(-300.711 123.668)">
			<path id="パス_129" class="st0" d="M380.1,783.2c0-0.1-0.1-0.3-0.2-0.3c0,0-0.1,0-0.1,0c-0.9,0.1-2.4,0.3-2.8,0.3
				c-0.2-0.1-0.3-0.3-0.4-0.5c0-0.1,0.1-0.1,0.2-0.2c1.9-0.6,3.7-1.3,5.4-2.2c0,0,0.1,0,0.1,0c0.1,0,0.2,0.1,0.2,0.1
				c0,3,0,7.3,0,11.3c0,3.9,0.1,4.8,0.2,5.2c0.1,0.5,0.3,0.6,3.5,0.8c-0.1,0.8-0.1,0.9-0.4,0.9l-3.1,0c-1.9,0-4.2,0.2-6.2,0.2
				c-0.3,0-0.3,0-0.3-0.2c0.1-0.6,0.2-0.6,0.3-0.7c1.4-0.1,2.2-0.3,2.8-0.3c0.5-0.1,0.6-0.3,0.7-0.7c0.1-0.9,0.2-2.5,0.1-6.2
				L380.1,783.2z"/>
			<path id="パス_130" class="st0" d="M393,780.3c1.6,0,3.1,0.8,4,2.2c0.9,1.4,1.5,3.7,1.5,6.8c0,4.8-1.3,6.9-2.3,7.8
				c-1,1-2.4,1.6-3.9,1.7c-1.6,0-3-0.7-4.1-2.3c-0.6-1-1.6-3.2-1.6-6.5c0-3.6,0.8-6,1.8-7.3c0.8-1.1,1.9-1.9,3.2-2.2
				C392,780.4,392.5,780.3,393,780.3L393,780.3z M392.5,781.3c-0.6,0-1.2,0.3-1.7,0.7c-0.7,0.6-1.7,2.5-1.7,7.1
				c0,4.4,0.9,6.7,1.9,7.7c0.6,0.7,1.1,0.9,1.8,0.9c0.6,0,1.3-0.2,1.7-0.7c0.6-0.6,1.5-2.7,1.5-7.1c0-3.2-0.2-6.2-1.6-7.8
				C393.9,781.6,393.2,781.3,392.5,781.3L392.5,781.3z"/>
			<path id="パス_131" class="st0" d="M406.8,780.3c1.6,0,3.1,0.8,4,2.2c0.9,1.4,1.5,3.7,1.5,6.8c0,4.8-1.3,6.9-2.3,7.8
				c-1,1-2.4,1.6-3.9,1.7c-1.6,0-3-0.7-4.1-2.3c-0.6-1-1.6-3.2-1.6-6.5c0-3.6,0.8-6,1.8-7.3c0.8-1.1,1.9-1.9,3.2-2.2
				C405.8,780.4,406.3,780.3,406.8,780.3L406.8,780.3z M406.3,781.3c-0.6,0-1.2,0.3-1.7,0.7c-0.7,0.6-1.7,2.5-1.7,7.1
				c0,4.4,0.9,6.7,1.9,7.7c0.6,0.7,1.1,0.9,1.8,0.9c0.6,0,1.3-0.2,1.7-0.7c0.6-0.6,1.5-2.7,1.5-7.1c0-3.2-0.2-6.2-1.6-7.8
				C407.7,781.6,407,781.3,406.3,781.3L406.3,781.3z"/>
			<path id="パス_132" class="st0" d="M413.4,794.3C413.4,794.3,413.4,794.4,413.4,794.3c0,0.2,0,0.6,0,0.7c0.4,0,1,0,1.3,0
				c0.1,0,0.1,0,0.1,0.1c0,0.1,0,0.2-0.1,0.3c0,0.1-0.1,0.1-0.1,0.1c-0.3,0-0.7,0-1.2,0c0,0,0,0-0.1,0.1c0,0.4,0,1.3,0,1.8
				c0,0.4,0.3,0.6,0.7,0.6c0.2,0,0.4-0.1,0.6-0.2c0,0,0.1,0,0.1,0c0,0.1,0,0.1,0,0.2c0,0,0,0.1-0.1,0.1c-0.3,0.2-0.7,0.4-1.1,0.4
				c-0.3,0-0.5-0.1-0.7-0.3c-0.1-0.1-0.1-0.3-0.1-0.7c0-0.5,0-1.7,0-2c0-0.1,0-0.1-0.1-0.1c-0.1,0-0.3,0-0.4,0c0,0-0.1-0.1,0-0.1
				c0.3-0.3,0.9-0.8,1.1-1C413.3,794.4,413.4,794.3,413.4,794.3L413.4,794.3z"/>
			<path id="パス_133" class="st0" d="M414.8,798.4C414.8,798.3,414.8,798.3,414.8,798.4c0.5-0.3,0.5-0.3,0.5-1.2v-3.6
				c0-0.5,0-0.5-0.3-0.8c0,0,0-0.1,0-0.1c0,0,0,0,0,0c0.1-0.1,0.7-0.4,0.9-0.5c0,0,0.1,0,0.1,0c0,0,0,0,0,0.1c0,0.6,0,1.2,0,1.8v1.3
				c0,0,0,0.1,0.1,0.1c0.2-0.1,0.7-0.3,0.9-0.4c0.2-0.1,0.3-0.1,0.5-0.1c0.8,0,1,0.7,1,1.4c0,0.3,0,0.9,0,1.5c0,0.3,0,0.3,0.4,0.4
				c0.1,0,0.1,0,0.1,0.1v0.1c0,0.1,0,0.1-0.1,0.1h-0.6c-0.3,0-0.6,0-0.9,0.1c0,0,0,0,0-0.1c0-0.1,0-0.1,0-0.1c0,0,0.2-0.1,0.3-0.1
				c0.2-0.1,0.2-0.1,0.2-0.4c0-0.3,0-0.7,0-1c0-0.8-0.2-1.1-0.3-1.2c-0.2-0.1-0.3-0.2-0.5-0.2c-0.3,0-0.6,0.1-0.8,0.2
				c-0.1,0-0.1,0.1-0.1,0.3v1c0,0.3,0,0.7,0.1,1c0,0.2,0.1,0.3,0.5,0.3c0,0,0,0,0.1,0.2c0,0.1,0,0.1,0,0.1c-0.5,0-1.1,0-1.6,0.1
				c-0.1,0-0.1,0-0.1,0L414.8,798.4z"/>
		</g>
		<g id="グループ_135" transform="translate(-299.586 234.573)">
			<path id="パス_134" class="st0" d="M378.1,694.3c0.1,0,0.1,0,0.1,0.1c0.2,0.8,0.4,1.2,0.7,2c0.3,0.7,0.9,2.3,1,2.5
				c0.2,0.4,0.3,0.5,0.7,0.6c0,0.1,0,0.2-0.1,0.2c-0.7,0-0.8,0-1.1,0c-0.3,0-0.5,0-0.6,0c0,0,0,0-0.1,0c0-0.1,0-0.1,0-0.2
				c0.4-0.1,0.5-0.2,0.4-0.5c0-0.2-0.3-0.8-0.4-1.1c0-0.1-0.1-0.1-0.1-0.1c-0.6,0-1.3,0-1.7,0c-0.1,0-0.1,0-0.2,0.2
				c-0.2,0.3-0.3,0.7-0.3,1.1c0,0.2,0.1,0.2,0.5,0.4c0,0.1,0,0.2-0.1,0.2c-0.4,0-0.9,0-1,0c-0.1,0-0.3,0-0.3,0c0,0,0,0-0.1,0
				c0-0.1,0-0.1,0-0.2c0.3-0.1,0.4-0.3,0.6-0.7c0.2-0.4,1.1-2.7,1.6-3.8c0.1-0.2,0.1-0.4,0.2-0.5c0,0,0-0.1,0-0.1
				C378,694.4,378,694.4,378.1,694.3L378.1,694.3z M377.1,697.5c0,0,0.2,0,0.6,0c0.4,0,0.6,0,0.8,0c0.1,0,0.1-0.1,0.1-0.1
				c-0.3-0.9-0.5-1.3-0.7-2c0,0-0.1,0-0.1,0c-0.4,0.9-0.5,1.1-0.8,2C377,697.5,377,697.5,377.1,697.5L377.1,697.5z"/>
			<path id="パス_135" class="st0" d="M381.4,699.6c0.3-0.1,0.3-0.1,0.4-0.4c0-0.4,0.1-0.7,0.1-1.1c0-0.3,0-0.6,0-0.8
				c0-0.1,0-0.1-0.4-0.2c0,0,0,0,0-0.2c0,0,0,0,0.1-0.1c0.3-0.2,0.7-0.4,0.7-0.4c0,0,0.1,0,0.1,0c0,0,0.1,0,0.1,0.1
				c0,0.1,0,0.3,0,0.4c0,0,0,0.1,0,0.1c0.2-0.1,0.5-0.3,0.7-0.4c0.1-0.1,0.3-0.1,0.5-0.1c0.2,0,0.4,0.1,0.6,0.2
				c0.2,0.2,0.4,0.5,0.4,0.8c0,0.2,0,0.4,0,0.7c0,0.6,0,0.9,0,1.1c0,0.1,0,0.1,0,0.1c0.1,0,0.3,0,0.4,0c0,0,0,0,0,0.1
				c0,0.1,0,0.1,0,0.2c0,0,0,0-0.1,0c-0.7,0-1,0-1.3,0c0,0-0.1,0-0.1,0l0-0.2c0.2-0.1,0.3-0.1,0.4-0.4c0-0.4,0.1-0.7,0-1.1
				c0-0.4,0-0.7-0.2-0.9c-0.1-0.1-0.3-0.2-0.5-0.2c-0.2,0-0.5,0.1-0.7,0.2c-0.1,0-0.1,0.1-0.1,0.2c0,0.3,0,1.4,0,1.9
				c0,0.1,0,0.1,0.4,0.2c0,0,0.1,0,0,0.1l0,0.2h-0.7c-0.3,0-0.6,0-0.7,0c0,0,0,0,0,0L381.4,699.6z"/>
			<path id="パス_136" class="st0" d="M385.7,699.6c0.3-0.1,0.3-0.1,0.4-0.4c0-0.4,0.1-0.7,0.1-1.1c0-0.3,0-0.6,0-0.8
				c0-0.1,0-0.1-0.4-0.2c0,0,0,0,0-0.2c0,0,0,0,0.1-0.1c0.3-0.2,0.7-0.4,0.7-0.4c0,0,0.1,0,0.1,0c0,0,0.1,0,0.1,0.1
				c0,0.1,0,0.3,0,0.4c0,0,0,0.1,0,0.1c0.2-0.1,0.5-0.3,0.7-0.4c0.1-0.1,0.3-0.1,0.5-0.1c0.2,0,0.4,0.1,0.6,0.2
				c0.2,0.2,0.4,0.5,0.4,0.8c0,0.2,0,0.4,0,0.7c0,0.6,0,0.9,0,1.1c0,0.1,0,0.1,0,0.1c0.1,0,0.3,0,0.4,0c0,0,0,0,0,0.1
				c0,0.1,0,0.1,0,0.2c0,0,0,0-0.1,0c-0.7,0-1,0-1.3,0c0,0-0.1,0-0.1,0l0-0.2c0.2-0.1,0.3-0.1,0.4-0.4c0-0.4,0.1-0.7,0-1.1
				c0-0.4,0-0.7-0.2-0.9c-0.1-0.1-0.3-0.2-0.5-0.2c-0.2,0-0.5,0.1-0.7,0.2c-0.1,0-0.1,0.1-0.1,0.2c0,0.3,0,1.4,0,1.9
				c0,0.1,0,0.1,0.4,0.2c0,0,0.1,0,0,0.1l0,0.2h-0.7c-0.3,0-0.6,0-0.7,0c0,0,0,0,0,0L385.7,699.6z"/>
			<path id="パス_137" class="st0" d="M390.4,697.2c0,0-0.1-0.1-0.4-0.1c0,0,0,0,0-0.1c0.1-0.1,0.1-0.2,0.1-0.2
				c0.3-0.1,0.6-0.2,1-0.3c0,0,0,0,0,0c0,0,0,0,0,0.1c0,0.6-0.1,1.7-0.1,2.1c0,0.4,0,0.6,0,0.7c0,0.1,0,0.2,0.1,0.2
				c0.3,0,0.3,0,0.3,0s0.1,0,0.1,0.1l0,0.2c0,0,0,0-0.1,0c-0.2,0-0.5,0-0.7,0c-0.2,0-0.5,0-0.7,0c0,0-0.1,0-0.1,0c0-0.1,0-0.1,0-0.2
				c0,0,0,0,0,0c0.3,0,0.4-0.1,0.4-0.3c0-0.4,0.1-0.8,0.1-1.2L390.4,697.2z M390.9,694.7c0.2,0,0.4,0.2,0.3,0.4c0,0,0,0,0,0
				c0,0.2-0.2,0.4-0.4,0.4c0,0,0,0,0,0c-0.2,0-0.4-0.2-0.4-0.4c0,0,0,0,0,0C390.5,694.9,390.7,694.7,390.9,694.7L390.9,694.7z"/>
			<path id="パス_138" class="st0" d="M393.4,696.7C393.4,696.8,393.4,696.8,393.4,696.7c-0.2,0.2-0.3,0.2-0.4,0.3
				c0,0,0,0.1,0,0.3c0.1,0.3,0.4,1.3,0.6,1.6c0,0,0,0,0.1,0c0.2-0.5,0.4-0.9,0.6-1.4c0.1-0.1,0.1-0.3,0.1-0.4c0-0.1-0.1-0.1-0.4-0.2
				c0,0,0,0,0-0.1c0-0.1,0-0.1,0.1-0.1c0.3,0,0.6,0,0.8,0c0,0,0.1,0,0.1,0c0,0,0,0.1,0,0.1c0,0,0,0.1,0,0.1c-0.4,0.6-1,1.7-1.3,2.5
				c-0.1,0.1-0.1,0.3-0.2,0.4c0,0.1,0,0.1-0.1,0.1c-0.1,0-0.1,0-0.2,0c0,0-0.1,0-0.1-0.2c-0.1-0.2-0.4-1.1-0.8-2.2
				c-0.2-0.4-0.2-0.6-0.5-0.6c0,0,0.1-0.2,0.1-0.2c0.3,0,1,0,1.3,0C393.4,696.6,393.4,696.6,393.4,696.7L393.4,696.7z"/>
			<path id="パス_139" class="st0" d="M397.3,696.5c0.3,0,0.5,0.1,0.7,0.3c0.2,0.1,0.3,0.3,0.3,0.5c0.1,0,0.2-0.1,0.3,0
				c0,0,0,0,0,0.1c0,0.1-0.1,0.2-0.2,0.2c-0.5,0.1-1.6,0.3-1.9,0.4c0,0-0.1,0-0.1,0.1c0,0.8,0.5,1.1,1,1.1c0.4,0,0.7-0.1,1-0.4
				c0,0,0.1,0,0.1,0c0,0.2,0,0.3-0.1,0.3c-0.3,0.2-0.6,0.4-1,0.5c-0.1,0-0.2,0-0.3,0c-0.4,0-0.8-0.2-1-0.5c-0.2-0.3-0.4-0.6-0.4-1
				c0-0.6,0.3-1.2,0.9-1.6C396.8,696.6,397,696.5,397.3,696.5L397.3,696.5z M397.6,697.4c-0.1-0.3-0.3-0.6-0.6-0.6
				c-0.1,0-0.1,0-0.2,0.1c-0.3,0.2-0.4,0.6-0.4,0.9c0.4-0.1,0.7-0.2,1.1-0.3C397.6,697.6,397.6,697.5,397.6,697.4
				C397.6,697.4,397.6,697.4,397.6,697.4L397.6,697.4z"/>
			<path id="パス_140" class="st0" d="M399.3,699.5c0.2-0.1,0.2-0.1,0.2-0.2c0-0.1,0-0.3,0-1v-0.7c0-0.2,0-0.2-0.3-0.3
				c-0.1,0-0.1-0.1-0.1-0.2c0.3-0.2,0.6-0.4,0.9-0.6c0,0,0.1,0,0.1,0c0,0,0.1,0.1,0.1,0.1c0,0.2,0,0.4,0,0.6
				c0.2-0.1,0.7-0.5,0.8-0.6c0.1-0.1,0.1-0.1,0.2-0.1c0.2,0,0.4,0.2,0.4,0.4c0,0.1-0.2,0.4-0.3,0.4c0,0-0.1,0.1-0.1,0.1
				c0,0-0.1,0-0.1-0.1c-0.1-0.1-0.2-0.2-0.3-0.2c-0.2,0-0.4,0.1-0.5,0.3c-0.1,0-0.1,0.2-0.1,0.5v1c0,0.1,0,0.2,0,0.3
				c0,0,0.1,0.1,0.1,0.1l0.4,0c0,0,0.1,0,0.1,0.1c0,0,0,0,0,0l0,0.3h-1.1c-0.2,0-0.4,0-0.5,0c0,0,0,0,0-0.1L399.3,699.5z"/>
			<path id="パス_141" class="st0" d="M404.5,698.9c0,0.3-0.2,0.5-0.4,0.7c-0.2,0.1-0.5,0.2-0.8,0.2c-0.2,0-0.5,0-0.7-0.1
				c-0.1,0-0.2,0-0.3,0c0,0-0.1,0-0.1,0c0,0,0,0,0-0.1c0-0.3,0-0.6,0-0.9c0,0,0,0,0-0.1c0.1,0,0.1,0,0.2-0.1
				c0.1,0.2,0.2,0.4,0.4,0.6c0.1,0.2,0.3,0.3,0.6,0.3c0.3,0,0.5-0.2,0.5-0.5c0-0.4-0.5-0.6-0.7-0.8c-0.2-0.1-0.8-0.4-0.8-0.9
				c0-0.3,0.1-0.5,0.4-0.7c0.2-0.2,0.4-0.2,0.7-0.3c0.2,0,0.4,0,0.5,0c0,0,0.1,0,0.1,0c0,0,0,0,0.1,0c0,0,0,0,0,0.1
				c0,0.3,0.1,0.5,0.2,0.8c0,0-0.1,0.1-0.1,0.1c-0.1,0-0.2,0-0.2-0.1c-0.1-0.2-0.3-0.6-0.7-0.6c-0.2,0-0.4,0.2-0.4,0.4c0,0,0,0,0,0
				c0,0.4,0.3,0.5,0.7,0.7C403.8,698,404.5,698.3,404.5,698.9L404.5,698.9z"/>
			<path id="パス_142" class="st0" d="M405.5,697.5c0,0-0.1,0-0.1,0c0,0-0.1-0.1-0.1-0.1c0-0.1,0-0.1,0.1-0.2
				c0.3-0.3,0.6-0.5,0.9-0.6c0.1-0.1,0.3-0.1,0.4-0.1c0.3,0,0.5,0.1,0.7,0.3c0.1,0.1,0.2,0.2,0.2,0.4c0,0.6,0,1.1,0,1.7
				c0,0.4,0.1,0.6,0.2,0.6c0.1,0,0.3-0.1,0.4-0.1c0,0,0.1,0,0.1,0.1l0,0.1c0,0,0,0.1,0,0.1c-0.3,0.1-0.6,0.2-0.9,0.2
				c-0.1,0-0.3-0.1-0.3-0.4c-0.3,0.2-0.7,0.3-1,0.4c-0.2,0-0.3-0.1-0.5-0.2c-0.2-0.2-0.2-0.4-0.2-0.6c0-0.2,0.1-0.3,0.3-0.4
				c0.4-0.2,0.9-0.4,1.4-0.4c0-0.1,0-0.4,0-0.6c0-0.2,0-0.4-0.1-0.6c-0.1-0.1-0.3-0.1-0.5-0.1c-0.1,0-0.2,0-0.3,0
				c0,0-0.1,0.1-0.1,0.3c0,0.1,0,0.1,0,0.1L405.5,697.5z M406.3,699.4c0.2,0,0.3-0.1,0.5-0.2c0.1-0.1,0.2-0.1,0.2-0.2
				c0-0.1,0-0.4,0-0.5c0-0.1,0-0.1,0-0.1c-0.3,0-0.7,0.1-1,0.3c0,0-0.1,0.1-0.1,0.2C405.9,699.2,406,699.4,406.3,699.4L406.3,699.4z
				"/>
			<path id="パス_143" class="st0" d="M408.9,699.5c0.2-0.1,0.2-0.1,0.2-0.2c0-0.1,0-0.3,0-1v-0.7c0-0.2,0-0.2-0.3-0.3
				c-0.1,0-0.1-0.1-0.1-0.2c0.3-0.2,0.6-0.4,0.9-0.6c0,0,0.1,0,0.1,0c0,0,0.1,0.1,0.1,0.1c0,0.2,0,0.4,0,0.6
				c0.2-0.1,0.7-0.5,0.8-0.6c0.1-0.1,0.1-0.1,0.2-0.1c0.2,0,0.4,0.2,0.4,0.4c0,0.1-0.2,0.4-0.3,0.4c0,0-0.1,0.1-0.1,0.1
				c0,0-0.1,0-0.1-0.1c-0.1-0.1-0.2-0.2-0.3-0.2c-0.2,0-0.4,0.1-0.5,0.3c-0.1,0-0.1,0.2-0.1,0.5v1c0,0.1,0,0.2,0,0.3
				c0,0,0.1,0.1,0.1,0.1l0.4,0c0,0,0.1,0,0.1,0.1c0,0,0,0,0,0l0,0.3h-1.1c-0.2,0-0.4,0-0.5,0c0,0,0,0,0-0.1L408.9,699.5z"/>
			<path id="パス_144" class="st0" d="M413.8,696.8c0-0.1,0-0.1,0-0.2c0.3,0,0.5,0,0.8,0c0.1,0,0.2,0,0.3,0c0,0,0.1,0,0.1,0
				c0,0.1,0.1,0.1,0.1,0.2c-0.3,0.1-0.4,0.3-0.6,0.7c-0.6,1.1-0.9,1.9-1.1,2.4c-0.2,0.6-0.5,1.3-0.5,1.5c0,0.1-0.1,0.2,0,0.3
				c0,0,0,0.1,0,0.1c-0.1,0-0.1,0.1-0.2,0c-0.1,0-0.3,0-0.4-0.1c-0.1-0.1-0.1-0.2,0-0.3c0-0.1,0.8-1.4,0.8-1.6c0-0.1,0-0.2,0-0.3
				c-0.3-0.8-0.5-1.5-0.8-2.5c-0.1-0.2-0.1-0.2-0.3-0.3c-0.1,0-0.1,0-0.1-0.1c0-0.1,0-0.1,0-0.2c0-0.1,0-0.1,0.1-0.1
				c0.6,0,0.9,0,1.2,0c0.1,0,0.1,0,0.1,0c0,0.1,0,0.1,0,0.2c-0.4,0.1-0.5,0.1-0.4,0.4c0.2,0.6,0.4,1.2,0.6,1.8
				c0.3-0.6,0.6-1.2,0.8-1.8C414.2,697,414.2,697,413.8,696.8C413.8,696.9,413.8,696.9,413.8,696.8L413.8,696.8z"/>
		</g>
		<line id="線_8" class="st1" x1="75.7" y1="926.1" x2="117.7" y2="926.1"/>
	</g>
</g>
</svg>
