<?xml version="1.0" encoding="utf-8"?>
<!-- Generator: Adobe Illustrator 25.4.1, SVG Export Plug-In . SVG Version: 6.00 Build 0)  -->
<svg version="1.1" id="レイヤー_1" xmlns="http://www.w3.org/2000/svg" xmlns:xlink="http://www.w3.org/1999/xlink" x="0px"
	 y="0px" viewBox="0 0 678.8 53.5" width="678.8px" height="53.5px" style="enable-background:new 0 0 678.8 53.5;" xml:space="preserve">
<style type="text/css">
	.st0{fill:#C08D4E;}
	.st1{fill:none;stroke:#C08D4E;stroke-width:0.25;stroke-miterlimit:10;}
	.st2{enable-background:new    ;}
</style>
<g id="logo-wide" transform="translate(-388.617 -786.62)">
	<g id="グループ_6" transform="translate(-306.948 734.177)">
		<g id="グループ_1" transform="translate(695.565 52.443)">
			<path id="パス_12" class="st0" d="M6.4,4.8c0-0.2-0.1-0.5-0.4-0.5c-0.1,0-0.1,0-0.2,0c-1.5,0.3-3,0.4-4.6,0.5
				C0.9,4.7,0.7,4.4,0.6,4.1c0-0.2,0.1-0.2,0.4-0.4C4,2.7,7,1.5,9.8,0C9.9,0,10,0,10.1,0c0.1,0,0.4,0.1,0.4,0.2c0,5,0,12.1,0,18.5
				s0.2,8,0.3,8.5c0.1,0.8,0.6,1,5.7,1.3c-0.1,1.3-0.1,1.5-0.6,1.5l-5.1,0c-3,0-6.8,0.3-10.2,0.3c-0.4,0-0.6,0-0.5-0.3
				c0.2-1,0.3-1,0.6-1.1c2.3-0.2,3.6-0.4,4.5-0.6c0.9-0.1,1-0.5,1.1-1.2c0.2-1.5,0.3-4.1,0.2-10.2L6.4,4.8z"/>
		</g>
		<g id="グループ_2" transform="translate(712.514 52.537)">
			<path id="パス_13" class="st0" d="M10.6,0c2.7,0,5.2,1.4,6.6,3.7c1.4,2.2,2.4,6.1,2.4,11.2c0,7.9-2.2,11.3-3.8,12.9
				c-1.7,1.7-4,2.7-6.4,2.7c-2.7,0-5.3-1.4-6.7-3.7C0.8,23.4-0.1,19.7,0,16c0-5.9,1.3-9.8,3-12.1c1.3-1.8,3.1-3,5.2-3.6
				C9,0.1,9.8,0,10.6,0L10.6,0z M9.7,1.7c-1,0-2,0.4-2.8,1.1C5.8,3.8,4.1,7,4.1,14.5c0,7.2,1.5,11,3.1,12.7c1.3,1.7,3.7,2,5.4,0.7
				c0.1-0.1,0.3-0.2,0.4-0.3c1-1,2.5-4.4,2.5-11.6c0-5.2-0.4-10.2-2.7-12.8C12.1,2.2,10.9,1.6,9.7,1.7L9.7,1.7z"/>
		</g>
		<g id="グループ_3" transform="translate(735.211 52.537)">
			<path id="パス_14" class="st0" d="M10.6,0c2.7,0,5.2,1.4,6.6,3.7c1.4,2.2,2.4,6.1,2.4,11.2c0,7.9-2.2,11.3-3.8,12.9
				c-1.7,1.7-4,2.7-6.4,2.7c-2.7,0-5.3-1.4-6.7-3.7C0.8,23.4-0.1,19.7,0,16c0-5.9,1.3-9.8,3-12.1c1.3-1.8,3.1-3,5.2-3.6
				C9,0.1,9.8,0,10.6,0L10.6,0z M9.7,1.7c-1,0-2,0.4-2.8,1.1C5.9,3.8,4.1,7,4.1,14.5c0,7.2,1.5,11,3.1,12.7c1.3,1.7,3.7,2,5.4,0.7
				c0.1-0.1,0.3-0.2,0.4-0.3c1-1,2.5-4.4,2.5-11.6c0-5.2-0.4-10.2-2.7-12.8C12.1,2.2,10.9,1.6,9.7,1.7L9.7,1.7z"/>
		</g>
		<g id="グループ_4" transform="translate(754.677 71.941)">
			<path id="パス_15" class="st0" d="M2,3.6C2,3.6,2,3.7,2,3.6c0,0.3,0,1.1,0,1.2c0.7,0,1.6-0.1,2.1-0.1c0.1,0,0.2,0,0.2,0.2
				c0,0.2,0,0.3-0.1,0.5c0,0.1-0.1,0.1-0.2,0.1c-0.4,0-1.1,0-1.9,0c0,0-0.1,0-0.1,0.2c0,0.7,0,2.2,0,3c0,0.5,0.4,1,0.9,1
				c0.1,0,0.1,0,0.2,0c0.3,0,0.7-0.1,0.9-0.3c0.1,0,0.1,0,0.1,0c0,0.1,0,0.2,0,0.3C4,9.9,4,9.9,3.9,10c-0.5,0.4-1.2,0.6-1.8,0.7
				c-0.4,0-0.8-0.2-1.1-0.5C0.8,9.8,0.7,9.4,0.8,9.1c0-0.8,0-2.8,0.1-3.3c0-0.1-0.1-0.2-0.1-0.2c-0.2,0-0.5,0-0.6,0
				c0,0-0.1-0.1-0.1-0.2c0.5-0.5,1.5-1.4,1.8-1.7C1.8,3.7,1.9,3.6,2,3.6L2,3.6z"/>
			<path id="パス_16" class="st0" d="M4.3,10.3c0-0.1,0-0.1,0-0.1c0.8-0.4,0.8-0.4,0.8-1.8V2.5c0-0.9,0-0.9-0.5-1.4
				c0-0.1,0-0.1,0-0.2c0,0,0,0,0,0C4.9,0.7,5.7,0.2,6.1,0c0.1,0,0.1,0,0.2,0c0,0,0,0.1,0,0.2c0,0.9,0,1.9,0,2.9v2.2
				c0,0,0.1,0.1,0.1,0.1C6.7,5.3,7.6,4.9,8,4.7c0.3-0.1,0.5-0.1,0.8-0.1c1.3,0,1.6,1.1,1.6,2.3c0,0.4,0,1.5,0,2.4
				c0,0.5,0.1,0.5,0.6,0.7c0.1,0,0.1,0,0.1,0.1v0.2c0,0.1,0,0.1-0.1,0.1h-1c-0.5,0-1,0-1.5,0.1c-0.1,0-0.1,0-0.1-0.2
				c0-0.2,0-0.2,0-0.2S8.7,10,8.9,10c0.3-0.1,0.3-0.2,0.4-0.6c0.1-0.6,0.1-1.1,0.1-1.7c0-1.4-0.3-1.8-0.6-2C8.5,5.5,8.2,5.4,7.9,5.4
				c-0.5,0-1,0.2-1.4,0.4C6.3,5.9,6.3,6,6.3,6.3v1.6c0,0.5,0,1.1,0.1,1.6c0,0.4,0.1,0.4,0.8,0.5c0.1,0,0.1,0,0.1,0.4
				c0,0.1,0,0.1-0.1,0.1c-0.9,0-1.8,0-2.6,0.1c-0.1,0-0.1,0-0.1,0L4.3,10.3z"/>
		</g>
		<g id="グループ_5" transform="translate(695.981 93.492)">
			<path id="パス_17" class="st0" d="M4.5,0c0.1,0,0.1,0.1,0.2,0.2c0.4,1.3,0.7,2,1.1,3.2c0.4,1.2,1.5,3.7,1.7,4.1
				c0.2,0.6,0.6,1,1.2,1c0,0.1,0,0.3-0.1,0.4c-1.1,0-1.4,0-1.8,0S6,9,5.9,9c-0.1,0-0.1,0-0.1,0c0-0.1-0.1-0.2-0.1-0.3
				c0.7-0.2,0.8-0.3,0.6-0.8C6.3,7.5,5.9,6.4,5.7,6c0-0.1-0.1-0.2-0.2-0.2c-1,0-2.1,0-2.9,0.1c-0.2,0-0.2,0.1-0.3,0.3
				C2,6.7,1.8,7.3,1.7,7.9c0,0.3,0.1,0.4,0.8,0.6c0,0.1,0,0.3-0.1,0.4c-0.7,0-1.4,0-1.7,0c-0.2,0-0.4,0-0.5,0s-0.1,0-0.1,0
				C0,8.7,0,8.6,0,8.5C0.6,8.3,0.7,8,1.1,7.3C1.4,6.6,3,2.9,3.7,1C3.9,0.7,4,0.4,4,0.2c0,0,0-0.1,0.1-0.1C4.2,0.1,4.4,0,4.5,0L4.5,0
				z M2.9,5.2c0.1,0,0.4,0,1,0c0.6,0,1,0,1.4,0c0.1,0,0.1-0.1,0.1-0.2C4.8,3.6,4.5,2.9,4.1,1.8c0-0.1-0.1,0-0.2,0.1
				C3.3,3.3,3.2,3.7,2.7,5.1C2.6,5.2,2.7,5.2,2.9,5.2L2.9,5.2z"/>
			<path id="パス_18" class="st0" d="M9.9,8.6c0.4-0.1,0.6-0.2,0.6-0.6c0.1-0.6,0.1-1.2,0.1-1.8c0-0.5,0-1,0-1.2
				c0-0.1-0.1-0.2-0.7-0.3c-0.1-0.1-0.1,0,0-0.3c0,0,0-0.1,0.1-0.1c0.6-0.3,1.2-0.6,1.2-0.7c0,0,0.1,0,0.1,0c0.1,0,0.1,0,0.1,0.1
				c0,0.2,0,0.5,0,0.7c0,0.1,0,0.1,0.1,0.1c0.4-0.2,0.8-0.4,1.2-0.6c0.2-0.1,0.5-0.2,0.7-0.2c0.3,0,0.6,0.1,0.9,0.3
				C14.8,4.3,15,4.8,15,5.3c0,0.3,0,0.6,0,1.2c0,1,0,1.5,0,1.8c0,0.1,0,0.1,0.1,0.1c0.1,0,0.5,0,0.7-0.1c0,0,0.1,0.1,0.1,0.1
				c0,0.1,0,0.2-0.1,0.3c0,0.1-0.1,0.1-0.1,0.1c-1.2,0-1.6,0.1-2.1,0.1c-0.1,0-0.1,0-0.2-0.1l-0.1-0.3c0.4-0.1,0.5-0.2,0.6-0.6
				C14,7.4,14,6.8,14,6.2c0-0.7,0-1.1-0.3-1.4c-0.2-0.2-0.6-0.4-0.9-0.3c-0.4,0-0.8,0.2-1.1,0.4c-0.1,0.1-0.2,0.2-0.1,0.3
				c0,0.5,0,2.4,0,3.1c0,0.2,0,0.2,0.7,0.3c0.1,0,0.1,0,0.1,0.1l-0.1,0.3h-1.1c-0.5,0-1,0.1-1.2,0.1c0,0,0,0,0-0.1L9.9,8.6z"/>
			<path id="パス_19" class="st0" d="M17,8.6c0.4-0.1,0.6-0.2,0.6-0.6c0.1-0.6,0.1-1.2,0.1-1.8c0-0.5,0-1,0-1.2
				c0-0.1-0.1-0.2-0.7-0.3c-0.1-0.1-0.1,0,0-0.3c0,0,0-0.1,0.1-0.1c0.6-0.3,1.2-0.6,1.2-0.7c0,0,0.1,0,0.1,0c0.1,0,0.1,0,0.1,0.1
				c0,0.2,0,0.5,0,0.7c0,0.1,0,0.1,0.1,0.1C19,4.2,19.4,4,19.8,3.9c0.2-0.1,0.5-0.2,0.7-0.2c0.3,0,0.6,0.1,0.9,0.3
				C21.8,4.3,22,4.8,22,5.3c0,0.3,0,0.6,0,1.2c0,1,0,1.5,0,1.8c0,0.1,0,0.1,0.1,0.1c0.1,0,0.5,0,0.7-0.1c0,0,0.1,0.1,0.1,0.1
				c0,0.1,0,0.2-0.1,0.3c0,0.1-0.1,0.1-0.1,0.1c-1.2,0-1.6,0.1-2.1,0.1c-0.1,0-0.1,0-0.2-0.1l-0.1-0.3C20.8,8.5,21,8.4,21,8
				c0.1-0.6,0.1-1.2,0.1-1.8c0-0.7,0-1.1-0.3-1.4c-0.2-0.2-0.6-0.4-0.9-0.3c-0.4,0-0.8,0.2-1.1,0.4c-0.1,0.1-0.2,0.2-0.1,0.3
				c0,0.5,0,2.4,0,3.1c0,0.2,0,0.2,0.7,0.3c0.1,0,0.1,0,0.1,0.1l-0.1,0.3h-1.1c-0.5,0-1,0.1-1.2,0.1c0,0,0,0,0-0.1L17,8.6z"/>
			<path id="パス_20" class="st0" d="M24.7,4.7c0-0.1-0.1-0.1-0.7-0.2c-0.1,0-0.1,0,0-0.1c0.1-0.2,0.1-0.3,0.2-0.3
				c0.5-0.2,1-0.4,1.6-0.6c0,0,0,0,0.1,0c0,0,0,0,0,0.1c-0.1,0.9-0.1,2.8-0.1,3.5s0,0.9,0,1.1c0,0.2,0.1,0.3,0.2,0.3
				c0.4,0,0.5,0,0.6,0s0.1,0.1,0.1,0.1l0,0.3c0,0.1,0,0.1-0.1,0.1c-0.4,0-0.8,0-1.2,0c-0.4,0-0.8,0-1.2,0.1C24,9,24,8.9,24,8.9
				c0-0.1,0-0.2,0-0.3c0-0.1,0-0.1,0.1-0.1c0.5-0.1,0.6-0.1,0.7-0.5c0.1-0.7,0.1-1.3,0.1-2L24.7,4.7z M25.5,0.6
				c0.3,0,0.6,0.3,0.6,0.6c0,0,0,0,0,0c0,0.4-0.3,0.7-0.6,0.7c0,0,0,0,0,0c-0.3,0-0.6-0.3-0.6-0.6c0,0,0,0,0,0
				C24.8,0.9,25.1,0.6,25.5,0.6L25.5,0.6z"/>
			<path id="パス_21" class="st0" d="M29.7,3.9c0,0.1,0,0.1-0.1,0.2c-0.2,0.1-0.4,0.2-0.6,0.3c0,0.1-0.1,0.1,0.1,0.5
				C29.2,5.4,29.8,7,30,7.5c0,0.1,0.1,0.1,0.1,0c0.4-0.8,0.7-1.5,1-2.3c0.1-0.2,0.2-0.4,0.2-0.6c0-0.1-0.1-0.2-0.6-0.3
				c-0.1,0,0-0.1,0-0.2c0-0.1,0.1-0.1,0.1-0.1c0.5,0,1,0,1.4,0c0.1,0,0.1,0,0.2,0.1c0,0,0.1,0.1,0.1,0.1c0,0.1,0,0.1,0,0.2
				c-0.8,1.3-1.6,2.6-2.2,4c-0.1,0.2-0.2,0.5-0.3,0.7C30,8.9,29.9,9,29.9,9c-0.1,0-0.2,0-0.3,0c-0.1,0-0.1-0.1-0.2-0.3
				c-0.1-0.3-0.7-1.9-1.3-3.5c-0.3-0.7-0.3-0.9-0.8-1c0,0,0.1-0.4,0.2-0.4c0.6,0,1.6,0,2.1-0.1c0.1,0,0.1,0,0.1,0.1L29.7,3.9z"/>
			<path id="パス_22" class="st0" d="M36,3.6c0.4,0,0.8,0.2,1.1,0.5c0.2,0.2,0.4,0.5,0.5,0.9c0.1,0,0.4-0.1,0.4,0c0,0,0,0.1,0,0.1
				c0,0.1-0.1,0.4-0.3,0.4c-0.9,0.2-2.6,0.5-3.2,0.7c-0.1,0-0.1,0.1-0.1,0.2c0,1.3,0.7,1.9,1.6,1.9c0.6,0,1.2-0.2,1.6-0.7
				c0.1-0.1,0.2-0.1,0.2,0c0,0.3,0,0.4-0.1,0.5c-0.5,0.4-1,0.7-1.7,0.9C36,9,35.8,9,35.6,9C35,9,34.4,8.7,34,8.2
				c-0.4-0.5-0.6-1.1-0.6-1.7c0-1,0.5-2,1.4-2.6C35.1,3.8,35.5,3.6,36,3.6L36,3.6z M36.6,5.1c-0.1-0.5-0.5-0.9-1.1-1
				c-0.1,0-0.2,0.1-0.3,0.1c-0.4,0.4-0.6,0.9-0.6,1.5c0.6-0.2,1.2-0.3,1.8-0.4C36.5,5.3,36.6,5.2,36.6,5.1
				C36.6,5.1,36.6,5.1,36.6,5.1L36.6,5.1z"/>
			<path id="パス_23" class="st0" d="M39.2,8.5c0.3-0.1,0.4-0.1,0.4-0.3c0-0.2,0-0.5,0-1.7V5.3c0-0.3,0-0.4-0.5-0.5
				C39,4.7,38.9,4.6,39,4.5c0.5-0.3,1.1-0.6,1.5-0.9c0.1,0,0.1,0,0.2-0.1c0.1,0,0.1,0.1,0.1,0.2c0,0.3-0.1,0.7,0,1.1
				c0.3-0.1,1.1-0.8,1.2-0.9c0.1-0.1,0.2-0.2,0.4-0.2c0.4,0,0.7,0.3,0.7,0.6c0,0.2-0.3,0.6-0.5,0.7c-0.1,0.1-0.1,0.1-0.2,0.1
				c-0.1,0-0.1,0-0.2-0.1c-0.1-0.2-0.3-0.3-0.5-0.3c-0.3,0.1-0.6,0.2-0.9,0.5c-0.1,0.1-0.1,0.3-0.1,0.9v1.7c0,0.2,0,0.4,0.1,0.6
				c0,0.1,0.1,0.1,0.2,0.1l0.7,0c0.1,0,0.1,0,0.1,0.1c0,0,0,0,0,0l-0.1,0.4h-1.8c-0.3,0-0.7,0-0.8,0c-0.1,0-0.1,0,0-0.1L39.2,8.5z"
				/>
			<path id="パス_24" class="st0" d="M47.8,7.6c0,0.4-0.3,0.8-0.6,1.1C46.7,8.9,46.2,9,45.8,9c-0.4,0-0.8-0.1-1.1-0.1
				c-0.1-0.1-0.3,0-0.5,0c0,0-0.1,0-0.1,0c0,0,0-0.1,0-0.1c0.1-0.5,0.1-1,0-1.5c0,0,0-0.1,0-0.1c0.1,0,0.2-0.1,0.3-0.1
				c0.1,0.4,0.3,0.7,0.6,1c0.2,0.3,0.5,0.5,0.9,0.5c0.4,0,0.8-0.3,0.8-0.8c0-0.7-0.8-1-1.2-1.2c-0.3-0.2-1.3-0.6-1.3-1.5
				c0-0.4,0.2-0.9,0.6-1.1c0.3-0.3,0.7-0.4,1.1-0.4c0.3,0,0.6,0,0.9,0c0.1,0,0.2,0,0.2,0c0,0,0.1,0,0.1,0s0,0.1,0,0.1
				c0,0.5,0.1,0.9,0.3,1.3c0,0.1-0.1,0.1-0.1,0.1c-0.2,0-0.3,0-0.4-0.2c-0.2-0.3-0.5-1-1.2-1c-0.4,0-0.6,0.3-0.6,0.7c0,0,0,0,0,0
				c0,0.6,0.5,0.9,1.1,1.2C46.6,6.1,47.8,6.5,47.8,7.6L47.8,7.6z"/>
			<path id="パス_25" class="st0" d="M49.5,5.2c-0.1,0-0.2,0-0.2,0c-0.1,0-0.1-0.1-0.2-0.2c0-0.1,0-0.2,0.1-0.3
				c0.4-0.5,1-0.8,1.6-1.1c0.2-0.1,0.5-0.1,0.7-0.2c0.4,0,0.8,0.2,1.1,0.5c0.2,0.2,0.3,0.4,0.3,0.6c0,0.9,0,1.9,0,2.8
				c0,0.7,0.1,1,0.3,1c0.2,0,0.4-0.1,0.7-0.2c0,0,0.1,0.1,0.1,0.1l0,0.2c0,0.1,0,0.1-0.1,0.1c-0.5,0.2-1,0.3-1.5,0.3
				c-0.2,0-0.4-0.1-0.5-0.7c-0.5,0.3-1.1,0.5-1.7,0.7c-0.3,0-0.5-0.1-0.8-0.3c-0.3-0.3-0.4-0.6-0.4-1c0-0.3,0.2-0.5,0.6-0.7
				c0.7-0.4,1.5-0.6,2.3-0.7c0-0.2,0-0.7,0-1c0-0.3,0-0.7-0.2-1c-0.2-0.1-0.5-0.2-0.7-0.2c-0.2,0-0.4,0-0.5,0.1
				c-0.1,0-0.1,0.1-0.1,0.6c0,0.1,0,0.1-0.1,0.2L49.5,5.2z M50.7,8.3c0.3,0,0.6-0.1,0.8-0.3c0.2-0.1,0.3-0.2,0.3-0.3s0-0.7,0-0.9
				c0-0.1,0-0.2-0.1-0.2c-0.6,0-1.1,0.2-1.6,0.5c-0.1,0.1-0.1,0.2-0.1,0.4C50.1,8.1,50.2,8.3,50.7,8.3L50.7,8.3z"/>
			<path id="パス_26" class="st0" d="M55,8.5c0.3-0.1,0.4-0.1,0.4-0.3c0-0.2,0-0.5,0-1.7V5.3c0-0.3,0-0.4-0.5-0.5
				c-0.1-0.1-0.2-0.2-0.1-0.3c0.5-0.3,1-0.6,1.5-0.9c0.1,0,0.1,0,0.2-0.1c0.1,0,0.1,0.1,0.1,0.2c0,0.3-0.1,0.7,0,1.1
				c0.3-0.1,1.1-0.8,1.2-0.9c0.1-0.1,0.2-0.2,0.4-0.2c0.4,0,0.7,0.3,0.7,0.6c0,0.2-0.3,0.6-0.5,0.7c-0.1,0.1-0.1,0.1-0.2,0.1
				c-0.1,0-0.1,0-0.2-0.1c-0.1-0.2-0.3-0.3-0.5-0.3c-0.3,0.1-0.6,0.2-0.9,0.5c-0.1,0.1-0.1,0.3-0.1,0.9v1.7c0,0.2,0,0.4,0.1,0.6
				c0,0.1,0.1,0.1,0.2,0.1l0.7,0c0.1,0,0.1,0,0.1,0.1c0,0,0,0,0,0l-0.1,0.4h-1.8c-0.3,0-0.7,0-0.8,0c-0.1,0-0.1,0,0-0.1L55,8.5z"/>
			<path id="パス_27" class="st0" d="M63,4.1c0-0.1,0-0.2,0.1-0.3c0.4,0,0.8,0,1.2-0.1c0.2,0,0.4,0,0.5,0c0,0,0.1,0,0.1,0
				C65,3.9,65,4,65,4.1c-0.5,0.2-0.7,0.5-1,1.2c-1,1.9-1.5,3.1-1.9,4c-0.4,1-0.8,2.2-0.9,2.4c-0.1,0.2-0.1,0.4-0.1,0.6
				c0,0.1,0,0.1,0,0.1c-0.1,0.1-0.2,0.1-0.3,0.1c-0.2,0-0.4-0.1-0.6-0.2c-0.1-0.1-0.1-0.3-0.1-0.4c0.1-0.1,1.3-2.3,1.3-2.6
				c0-0.2,0-0.3,0-0.5c-0.4-1.3-0.8-2.5-1.4-4c-0.1-0.3-0.2-0.4-0.5-0.5c-0.1,0-0.1-0.1-0.1-0.1c0-0.1,0-0.2,0.1-0.3
				c0-0.1,0.1-0.1,0.2-0.1c0.9,0,1.5-0.1,1.9-0.1c0.1,0,0.1,0,0.1,0c0,0.1,0.1,0.2,0.1,0.3c-0.7,0.2-0.7,0.2-0.6,0.7
				c0.3,1,0.6,2,1,3c0.5-0.9,0.9-1.9,1.3-2.9c0.1-0.5,0.1-0.5-0.5-0.7C63,4.2,63,4.1,63,4.1L63,4.1z"/>
		</g>
		<line id="線_4" class="st1" x1="695.8" y1="88.9" x2="764.8" y2="88.9"/>
	</g>
	<g class="st2">
		<path class="st0" d="M496,810.6c1.8,0.7,2.7,1.7,2.7,2.8c0,0.7-0.5,1.2-1.1,1.2c-0.4,0-0.7-0.3-0.8-0.9c-0.1-1.1-0.4-2-0.8-2.6
			c0,4.9,0.1,11,0.1,13.3c0,0.6-0.5,0.9-1.4,0.9c-0.6,0-1-0.2-1-0.8c0-1.3,0.2-6.4,0.2-11.5c-1.1,2.9-2,4.2-3.6,5.8
			c-0.1,0.1-0.3,0-0.2-0.1c1.5-3,2.8-7.1,3.4-10.8h-1c-0.5,0-1,0.1-1.7,0.2l-0.3-1c0.8,0.2,1.3,0.2,1.9,0.2h1.4v-2.8
			c0-1.5,0-2.3-0.1-3.3c2.8,0.3,3.2,0.4,3.2,0.8c0,0.3-0.3,0.5-0.9,0.7v4.5h0.4c0.8-1.3,1.1-1.5,1.2-1.5c0.2,0,0.5,0.2,1.3,1.1
			c0.3,0.4,0.5,0.6,0.5,0.8c0,0.2-0.1,0.3-0.3,0.3H496V810.6z M503.9,822.9c-2.1,1.2-4.4,1.9-7.2,2.1c-0.1,0-0.2-0.3-0.1-0.3
			c1.6-0.7,3.1-1.6,4.2-2.5c0.6-0.5,1.1-1.1,1.4-1.6c2.4,1.3,2.9,1.7,2.9,2C505.2,822.9,504.7,823.1,503.9,822.9z M501.5,820
			c0,0.7-0.5,1-1.3,1c-0.6,0-1-0.2-1-0.7c0-0.8,0.1-1.8,0.1-5.2c0-1.4,0-2.9-0.1-4.3c1.3,0.6,1.5,0.8,2.6,1.4h2.8v-2.5h-5.1
			c-0.4,0-0.9,0.1-1.4,0.2l-0.3-1c0.7,0.2,1.1,0.2,1.6,0.2h2.6v-3.3h-1.5c-0.5,0-0.9,0.1-1.6,0.2l-0.3-1c0.7,0.2,1.2,0.2,1.7,0.2
			h1.6v-1c0-1.1,0-1.8-0.1-2.8c2.7,0.3,3.1,0.5,3.1,0.8c0,0.2-0.1,0.4-0.8,0.7v2.4h3v-1c0-0.9,0-1.8-0.1-2.8
			c2.8,0.3,3.1,0.5,3.1,0.8c0,0.2-0.2,0.4-0.8,0.6v2.4h1.1c0.9-1.2,1.2-1.4,1.4-1.4c0.2,0,0.5,0.2,1.5,1c0.4,0.3,0.6,0.6,0.6,0.8
			s-0.1,0.3-0.3,0.3h-4.3v3.3h1.7c1-1.3,1.3-1.5,1.5-1.5c0.2,0,0.5,0.2,1.5,1c0.4,0.4,0.6,0.6,0.6,0.8c0,0.2-0.1,0.3-0.3,0.3h-7.6
			v2.5h3.1c0.9-1,1.1-1.1,1.3-1.1c0.3,0,0.5,0.2,1.4,0.9c0.4,0.4,0.6,0.6,0.6,0.8c0,0.2-0.2,0.5-0.8,0.8v1.1c0,2.8,0.1,4.8,0.1,5.4
			s-0.4,0.9-1.4,0.9c-0.6,0-1-0.2-1-0.8V820H501.5z M504.6,815.6v-2.9h-3.1v2.9H504.6z M501.5,819.4h3.1v-3.2h-3.1V819.4z
			 M504.3,809h3v-3.3h-3V809z M512.2,825.2c-0.5,0-0.8-0.2-1.8-1.4c-1.1-1.3-2.1-2-3.6-2.6c-0.1-0.1,0-0.3,0.1-0.3
			c4.7,0.3,6.5,1.1,6.5,2.9C513.4,824.7,512.9,825.2,512.2,825.2z M510.2,812.7h-3.3v2.9h3.3V812.7z M510.2,816.2h-3.3v3.2h3.3
			V816.2z"/>
		<path class="st0" d="M522.5,812.3c-0.6,0-0.9-0.4-1.4-1.5c-0.4-0.9-0.8-1.4-1.8-2.3c-0.1-0.1,0-0.2,0.1-0.2
			c2.8,0.2,4.3,1.1,4.3,2.6C523.7,811.8,523.2,812.3,522.5,812.3z M523.7,817.3c-0.2,0.6-0.6,1.5-0.6,2.1c0,1.1,1,2.2,1,3.5
			c0,1.1-0.7,1.8-1.7,1.8c-0.8,0-1.2-0.5-1.2-1.4c0-0.9,0.2-1.7,0.2-2.5c0-1.7-0.2-2-2-2.6c-0.1-0.1-0.1-0.4,0.1-0.4
			c0.8,0.1,0.9,0.1,1.1,0.1c0.5,0,0.8-0.2,1.3-0.7c0.7-0.8,2.6-4,4.8-8.3c0.1-0.1,0.4,0,0.3,0.1
			C525.6,812.5,524.8,814.7,523.7,817.3z M524.9,806.2c-0.8,0-0.9-0.4-1.5-1.6c-0.5-1-0.8-1.5-1.8-2.3c-0.1-0.1,0-0.2,0.1-0.2
			c2.8,0.2,4.4,1.2,4.4,2.7C526.1,805.7,525.5,806.2,524.9,806.2z M531.7,820.5c-2.2,2.3-4.1,3.6-7,4.5c-0.1,0.1-0.3-0.2-0.2-0.3
			c1.2-0.9,2.6-2.2,3.7-3.7c0.6-0.8,1-1.6,1.4-2.5c2.9,1.1,3.1,1.2,3.1,1.6C532.7,820.3,532.5,820.4,531.7,820.5z M528.2,807.1
			c0-1.4,0-1.9-0.2-3.4c1.3,0.7,1.5,0.8,2.8,1.5c1.6-0.5,3.9-1.4,5.5-2.3c1.1-0.6,2-1.2,2.2-1.6c2.2,1.7,2.8,2.3,2.8,2.6
			c0,0.2-0.2,0.3-0.5,0.3c-0.2,0-0.5-0.1-0.8-0.2c-2.4,0.7-5.4,1.3-9.4,1.8v3.5h8.1c1.1-1.4,1.5-1.6,1.6-1.6c0.2,0,0.5,0.2,1.7,1.1
			c0.5,0.4,0.8,0.7,0.8,0.8c0,0.2-0.1,0.3-0.3,0.3h-4.4v6.8h1.5c1.1-1.4,1.5-1.6,1.6-1.6c0.2,0,0.5,0.2,1.7,1.1
			c0.5,0.4,0.8,0.7,0.8,0.8s-0.1,0.3-0.3,0.3h-16.1c-0.5,0-1.1,0.1-1.8,0.2l-0.3-1c0.8,0.2,1.4,0.2,2,0.2h1V807.1z M535.6,816.8V810
			h-5v6.8H535.6z M540.6,824.9c-0.6,0-0.9-0.3-1.5-1.2c-1.1-2-2.3-3.3-4.1-4.5c-0.1-0.1,0.1-0.3,0.2-0.3c4.7,1.2,6.7,2.6,6.7,4.6
			C541.9,824.3,541.4,824.9,540.6,824.9z"/>
		<path class="st0" d="M552,823.7c0,0.8-0.5,1-1.5,1c-0.7,0-1-0.3-1-0.9c0-2.2,0.2-4.5,0.2-13.5c0-3,0-6-0.1-8.9
			c1.4,0.6,1.6,0.7,2.9,1.5h16c1-1.2,1.2-1.3,1.5-1.3c0.3,0,0.5,0.2,1.5,1c0.4,0.4,0.6,0.6,0.6,0.8c0,0.3-0.2,0.5-0.8,0.8v3.2
			c0,8.4,0.2,14.1,0.2,16.1c0,0.8-0.5,1.1-1.6,1.1c-0.7,0-1.1-0.3-1.1-0.8v-0.8H552V823.7z M568.7,803.6H552v18.9h16.7V803.6z
			 M558.8,812.7h-3c-0.5,0-1,0.1-1.6,0.2l-0.3-1c0.7,0.2,1.2,0.2,1.8,0.2h3.1v-4.8h-3.6c-0.5,0-1,0.1-1.7,0.2l-0.3-1
			c0.8,0.2,1.4,0.2,1.9,0.2h8.7c1-1.2,1.4-1.4,1.5-1.4c0.2,0,0.5,0.2,1.6,1c0.5,0.4,0.7,0.6,0.7,0.8s-0.1,0.3-0.3,0.3h-6.1v4.8h2.1
			c0.9-1.2,1.2-1.4,1.4-1.4c0.2,0,0.5,0.2,1.5,1c0.4,0.4,0.6,0.6,0.6,0.8c0,0.2-0.1,0.3-0.3,0.3h-5.3v6.1h3.2
			c0.9-1.3,1.2-1.5,1.4-1.5c0.2,0,0.5,0.2,1.6,1.1c0.4,0.4,0.6,0.6,0.6,0.8c0,0.2-0.1,0.3-0.3,0.3h-13c-0.5,0-1,0.1-1.6,0.2l-0.3-1
			c0.7,0.2,1.3,0.2,1.8,0.2h4.1V812.7z M564.8,817.4c-0.5,0-0.7-0.2-1-0.9c-0.4-1.1-0.9-1.8-1.6-2.5c-0.1-0.1,0-0.2,0.1-0.2
			c2.5,0.4,3.6,1.2,3.6,2.3C565.9,816.8,565.4,817.4,564.8,817.4z"/>
		<path class="st0" d="M589.4,822.7c1.3-3.1,2.6-7.2,3.3-10.3c0.3-1.2,0.4-2.3,0.5-3.1c2.7,0.8,3.8,1.2,3.8,1.7
			c0,0.4-0.3,0.5-1.2,0.6c-2.4,5.8-3.6,8.2-5.6,11.2h6.2c1.4-1.9,1.7-2.1,1.9-2.1c0.2,0,0.5,0.2,1.9,1.4c0.6,0.6,0.8,0.8,0.8,1
			c0,0.2-0.1,0.3-0.3,0.3h-21.2c-0.6,0-1.1,0.1-1.9,0.2l-0.3-1c0.8,0.2,1.5,0.2,2.1,0.2H589.4z M587.7,803.7c0-0.6-0.1-1.2-0.2-1.9
			c3.3,0.3,3.6,0.6,3.6,0.8c0,0.2-0.3,0.5-0.9,0.7v4h5c1.4-1.6,1.7-1.8,1.9-1.8c0.2,0,0.5,0.2,1.8,1.2c0.6,0.5,0.8,0.7,0.8,0.9
			c0,0.2-0.1,0.3-0.3,0.3h-18.5c-0.5,0-1.1,0.1-1.8,0.2l-0.3-1c0.8,0.2,1.5,0.2,2.1,0.2h6.8V803.7z M585.3,820.2
			c-0.8,0-1.2-0.5-1.2-2.5c-0.1-3.1-0.6-5.1-1.7-7.8c-0.1-0.1,0.2-0.3,0.3-0.2c2.6,2.7,4.2,5.8,4.2,8.2
			C586.9,819.4,586.2,820.2,585.3,820.2z"/>
		<path class="st0" d="M618.9,809.5c0.8,3.5,2.4,6.3,4.8,8.6c1.7,1.6,4,2.9,6.5,3.7c0.1,0.1,0.1,0.3,0,0.3c-1,0.4-1.5,1-1.8,2.1
			c-0.1,0.4-0.2,0.5-0.4,0.5c-0.3,0-0.9-0.3-1.6-0.8c-1.4-1-3.2-2.6-4.2-4c-2-2.6-3.2-5.9-3.7-9.8c-0.5,4-1.5,6.7-3.7,9.3
			c-2.1,2.5-4.8,4.3-8.6,5.4c-0.1,0-0.3-0.3-0.2-0.3c4-2.2,6.8-5.1,8.4-8.8c0.7-1.6,1.2-3.7,1.5-6.2H609c-0.7,0-1.4,0.1-2.4,0.2
			l-0.3-1c1.1,0.2,1.9,0.2,2.7,0.2h6.9c0.1-1.5,0.2-3,0.2-4.8c0-0.9,0-1.4-0.1-2.4c3.1,0.4,3.7,0.6,3.7,1.1c0,0.3-0.2,0.4-0.9,0.8
			c0,2-0.1,4-0.2,5.4h6.6c1.4-1.8,1.7-2,1.9-2c0.2,0,0.5,0.2,1.9,1.4c0.6,0.5,0.8,0.8,0.8,0.9c0,0.2-0.1,0.3-0.3,0.3H618.9z"/>
		<path class="st0" d="M650.1,806.9c0.5-0.9,1.1-1.9,1.7-3c0.4-0.9,0.7-1.7,0.9-2.4c2.3,1.1,3.1,1.5,3.1,1.8c0,0.3-0.3,0.5-1.2,0.5
			c-1,1-2.4,2.3-3.6,3h4c1.1-1.1,1.3-1.3,1.5-1.3c0.3,0,0.4,0.2,1.6,1.4c0.5,0.5,0.7,0.8,0.7,1c0,0.4-0.1,0.5-1.1,0.6
			c-0.4,0-0.4,0-0.6,0.2c-0.6,0.5-1.6,1.2-2.4,1.6c-0.1,0.1-0.3-0.1-0.2-0.2c0.3-0.7,0.6-1.5,0.8-2.6h-16.5c0.2,2.2-0.6,3.6-2,3.6
			c-0.8,0-1.4-0.6-1.4-1.4c0-0.6,0.2-0.9,0.8-1.2c1.4-0.7,1.7-1.2,2-2.8c0-0.1,0.2-0.2,0.3,0c0.1,0.5,0.2,0.9,0.3,1.3H650.1z
			 M645.5,815.5c0-0.9,0-1.1-0.1-2c0.9,0.2,1.6,0.3,2.1,0.3c1.3-1.2,1.9-1.9,2.7-3h-8.5c-0.4,0-0.9,0.1-1.5,0.2l-0.3-1
			c0.7,0.2,1.2,0.2,1.7,0.2h8.6c1.1-1,1.3-1.1,1.5-1.1c0.3,0,0.5,0.2,1.5,1.1c0.4,0.4,0.6,0.6,0.6,0.8c0,0.4-0.3,0.5-1.3,0.5
			c-1.7,1.2-2.8,1.9-4.1,2.5c0.5,0.1,0.5,0.2,0.5,0.4c0,0.3-0.2,0.4-0.9,0.8v0.8h6.3c1.3-1.6,1.6-1.8,1.8-1.8c0.2,0,0.5,0.2,1.9,1.3
			c0.6,0.5,0.8,0.7,0.8,0.9c0,0.2-0.1,0.3-0.3,0.3h-10.6v2.8c0,1.4,0.1,2.1,0.1,3.1c0,0.7-0.2,1.3-0.5,1.7c-0.5,0.7-1.3,1-2.6,1
			c-0.5,0-0.5-0.1-0.6-0.7c-0.1-0.9-0.9-1.4-3-1.9c-0.1,0-0.1-0.4,0-0.4c1.4,0.1,2.8,0.2,3.7,0.2c0.3,0,0.4-0.1,0.4-0.4v-5.4h-8.2
			c-0.5,0-1,0.1-1.6,0.2l-0.3-1c0.7,0.2,1.3,0.2,1.8,0.2h8.3V815.5z M641.7,806.6c-0.7,0-1-0.3-1.2-1.6c-0.3-1.1-0.7-2-1.4-2.7
			c-0.1-0.1,0-0.3,0.2-0.3c2.8,0.8,3.9,1.7,3.9,3.1C643.1,805.9,642.5,806.6,641.7,806.6z M647.2,806.1c-0.8,0-0.9-0.3-1.2-1.7
			c-0.2-1.1-0.7-2.1-1.4-2.9c-0.1-0.1,0-0.3,0.1-0.2c2.7,0.9,3.9,1.9,3.9,3.4C648.6,805.6,648,806.1,647.2,806.1z"/>
		<path class="st0" d="M680.8,817.1c1.3-0.4,2.5-0.9,3.5-1.3c0.1-0.1,0.3,0.2,0.2,0.3c-1.8,1.6-4.4,3.3-7.2,4.6
			c0,0.8-0.2,1.1-0.5,1.1c-0.4,0-0.7-0.6-1.8-3.1c0.6-0.1,1.4-0.3,2.3-0.5c0.4-0.1,0.8-0.2,1.2-0.3v-6.7h-1.1
			c-0.4,0-0.9,0.1-1.4,0.2l-0.3-1c0.7,0.2,1.2,0.2,1.7,0.2h1.2v-6.2H677c-0.4,0-0.9,0.1-1.4,0.2l-0.3-1c0.6,0.2,1.1,0.2,1.6,0.2h3.7
			c0.9-1.2,1.2-1.4,1.4-1.4c0.2,0,0.5,0.2,1.5,1c0.4,0.3,0.6,0.6,0.6,0.8c0,0.2-0.1,0.3-0.3,0.3h-3v6.2h0.2c0.7-1.1,1-1.3,1.2-1.3
			c0.2,0,0.5,0.2,1.3,0.9c0.3,0.3,0.5,0.5,0.5,0.7c0,0.2-0.1,0.3-0.3,0.3h-2.9V817.1z M692.3,817.7h1.8c1.4-1.5,1.7-1.7,1.8-1.7
			c0.2,0,0.5,0.2,1.7,1.2c0.5,0.4,0.7,0.7,0.7,0.9s-0.1,0.3-0.3,0.3h-5.7v4.8h2.8c1.5-1.6,1.8-1.8,2-1.8c0.2,0,0.5,0.2,1.8,1.2
			c0.5,0.4,0.8,0.7,0.8,0.9s-0.1,0.3-0.3,0.3h-15.5c-0.5,0-1,0.1-1.7,0.2l-0.3-1c0.8,0.2,1.3,0.2,1.9,0.2h6.3v-4.8h-3.8
			c-0.5,0-1,0.1-1.6,0.2l-0.3-1c0.7,0.2,1.3,0.2,1.8,0.2h3.9v-4.3h-3v0.6c0,0.7-0.4,0.9-1.5,0.9c-0.7,0-1-0.3-1-0.9
			c0-0.8,0.2-2.7,0.2-7.5c0-1.6,0-2.4-0.2-4.8c1.2,0.6,1.5,0.7,2.7,1.4h8.2c0.9-1,1.1-1.1,1.3-1.1c0.3,0,0.5,0.2,1.5,1
			c0.5,0.4,0.6,0.6,0.6,0.8c0,0.3-0.2,0.5-0.9,0.9v1.5c0,4,0.1,6.7,0.1,7.6c0,0.7-0.4,1-1.5,1c-0.7,0-1-0.2-1-0.8v-0.5h-3.2V817.7z
			 M690,807.9v-4.1h-3v4.1H690z M690,812.8v-4.3h-3v4.3H690z M695.5,807.9v-4.1h-3.2v4.1H695.5z M695.5,812.8v-4.3h-3.2v4.3H695.5z"
			/>
		<path class="st0" d="M714.7,805.4h-5.5c-0.7,0-1.5,0.1-2.4,0.2l-0.3-1c1.1,0.2,1.9,0.2,2.7,0.2h12.4c1.4-1.8,1.7-2,1.9-2
			c0.2,0,0.5,0.2,1.9,1.4c0.6,0.5,0.9,0.8,0.9,1s-0.1,0.3-0.3,0.3h-8.7v16.3h5.7c1.6-1.9,1.9-2.1,2.1-2.1c0.2,0,0.5,0.2,2,1.4
			c0.7,0.6,0.9,0.8,0.9,1s-0.1,0.3-0.3,0.3h-20.2c-0.8,0-1.5,0.1-2.5,0.2l-0.3-1c1.1,0.2,1.9,0.2,2.8,0.2h7.3V805.4z"/>
		<path class="st0" d="M741.3,819c-1.6,2.2-4.1,4-6.8,5c-0.1,0.1-0.3-0.2-0.2-0.3c1.5-1.3,2.8-2.7,3.8-4.2c0.5-0.9,1-1.8,1.3-2.7
			c2.3,0.9,3,1.3,3,1.7C742.3,818.8,742,818.9,741.3,819z M743.8,815.6c-2,0.2-4.3,0.4-7.5,0.7c-0.2,0.7-0.4,0.9-0.7,0.9
			c-0.4,0-0.4-0.1-1.1-3.4c1.5,0.3,2.4,0.3,4.8,0.3c0.9,0,1.7,0,2.5,0c1.8-1.5,3.7-3.5,5.1-5.4c0.7-0.9,1.2-1.8,1.7-2.6
			c2.1,1,3,1.5,3,1.9c0,0.3-0.3,0.5-1.2,0.5c-3,2.8-4.8,4.3-7.3,5.7c3-0.1,6-0.3,8.9-0.5c-0.5-0.7-1.1-1.3-2-2
			c-0.1-0.1,0-0.3,0.2-0.3c3.4,0.8,5.3,2.2,5.3,3.9c0,0.9-0.5,1.5-1.2,1.5c-0.5,0-0.9-0.3-1.2-1c-0.2-0.5-0.4-1-0.6-1.4
			c-2.1,0.4-4.1,0.8-6.2,1v2.8c0,2.3,0.1,5.1,0.1,6c0,0.8-0.5,1.1-1.5,1.1c-0.8,0-1.2-0.2-1.2-0.9c0-0.3,0.1-1.4,0.1-3.5V815.6z
			 M742,806.8c0.3-0.5,0.5-1,0.7-1.6c-2.4,0.2-4.9,0.2-7.6,0.1c-0.1,0-0.2-0.4-0.1-0.4c4.4-0.4,8.9-1.2,12.3-2.2
			c1.8-0.5,3.2-1.1,4.1-1.7c2,1.4,2.6,1.9,2.6,2.3c0,0.3-0.3,0.5-1.5,0.3c-2.7,0.8-5.6,1.3-8.7,1.6c1.7,0.7,2,0.9,2,1.1
			c0,0.3-0.2,0.4-1.1,0.4c-0.7,0.8-1.7,1.6-2.8,2.3c0.8,0.6,1.2,1.2,1.2,2c0,0.8-0.5,1.4-1.2,1.4c-0.6,0-0.8-0.2-1.4-1.6
			c-0.5-1.2-1.4-2.4-2.3-3c-0.1-0.1,0-0.3,0.2-0.3c1.1,0.3,2.1,0.6,2.8,0.9C741.4,807.9,741.7,807.3,742,806.8z M753.3,823.1
			c-0.7,0-0.9-0.2-1.5-1.5c-1-1.9-1.7-2.9-3.3-4.4c-0.1-0.1,0-0.3,0.2-0.3c3.8,1.2,6.1,3,6.1,4.6
			C754.7,822.5,754.1,823.1,753.3,823.1z"/>
		<path class="st0" d="M765.5,819.1c-0.8,1.8-1.9,3.2-3.7,4.7c-0.1,0.1-0.3-0.1-0.3-0.2c1.3-2.2,2.1-4.1,2.4-6.4
			c0.3-1.6,0.4-3.4,0.4-5.6c0-1,0-1.6-0.1-3.2c1.2,0.5,1.4,0.6,2.5,1.1h5.9c0.7-0.9,0.9-1,1.1-1c0.3,0,0.5,0.2,1.4,0.9
			c0.4,0.3,0.5,0.5,0.5,0.7c0,0.2-0.2,0.3-0.6,0.7v1.4c0,1.4,0.1,2.2,0.1,3.5c0,0.7-0.5,1-1.3,1c-0.6,0-1-0.2-1-0.8v-0.3h-6.5
			c-0.1,0.6-0.2,1.2-0.3,1.7c0.7,0.3,1,0.4,1.8,0.9h5c0.8-0.9,1-1,1.2-1c0.3,0,0.5,0.2,1.4,0.8c0.4,0.3,0.5,0.5,0.5,0.7
			c0,0.2-0.1,0.3-0.6,0.7v0.7c0,1.9,0.1,3.1,0.1,3.6c0,0.6-0.5,0.9-1.4,0.9c-0.7,0-1-0.2-1-0.7v-0.5h-5.4v0.8c0,0.6-0.4,0.9-1.3,0.9
			c-0.6,0-1-0.2-1-0.7c0-0.6,0.1-1.3,0.1-4V819.1z M766.6,806.9c-1.4,1.1-3,1.9-4.8,2.6c-0.1,0.1-0.3-0.2-0.2-0.3
			c2.1-1.5,4-3.3,5.3-5.2c0.7-1,1.2-1.9,1.5-2.9c2.6,1,2.9,1.1,2.9,1.5c0,0.3-0.3,0.4-1,0.4l-0.1,0.1c4,0.9,5.7,1.9,5.7,3.3
			c0,0.6-0.4,1.1-0.9,1.1c-0.4,0-0.7-0.2-1.2-0.8c-1.4-1.6-2.4-2.4-3.9-3.2C769,804.7,767.9,805.8,766.6,806.9
			c0.6,0.1,0.9,0.1,1.3,0.1h2.3c0.7-1,1-1.2,1.2-1.2c0.2,0,0.5,0.2,1.4,0.8c0.4,0.3,0.6,0.5,0.6,0.7c0,0.2-0.1,0.3-0.3,0.3H768
			c-0.3,0-0.7,0.1-1.1,0.2L766.6,806.9z M766.6,812.8c0,0.8-0.1,1.5-0.2,2.2h6.4v-2.2H766.6z M772.8,810.1h-6.2c0,0.8,0,1.5,0,2.1
			h6.2V810.1z M773.1,818.9h-5.4v3.9h5.4V818.9z M779.6,807.2c0,5.6,0.1,9.5,0.1,10.8c0,0.7-0.4,1.1-1.4,1.1c-0.8,0-1-0.3-1-0.9
			c0-0.8,0.1-3,0.1-7.6c0-4.1,0-4.9-0.1-6.9c2.6,0.3,3,0.4,3,0.8c0,0.2-0.2,0.4-0.8,0.7V807.2z M782.1,803.9c0-0.9,0-1.2-0.2-2.2
			c3.1,0.4,3.1,0.4,3.1,0.8c0,0.3-0.2,0.5-0.7,0.7v9.5c0,4.7,0.1,8.2,0.1,9.4c0,1.2-0.2,1.6-0.8,2.1c-0.6,0.4-1.2,0.6-1.9,0.6
			c-0.6,0-0.8-0.1-0.9-0.7c-0.1-1-0.6-1.3-2.7-2c-0.1,0-0.1-0.4,0-0.4c1.1,0.1,2.4,0.2,3.4,0.2c0.3,0,0.4-0.1,0.4-0.4V803.9z"/>
		<path class="st0" d="M803,822.7c1.3-3.1,2.6-7.2,3.3-10.3c0.3-1.2,0.4-2.3,0.5-3.1c2.7,0.8,3.8,1.2,3.8,1.7c0,0.4-0.3,0.5-1.2,0.6
			c-2.4,5.8-3.6,8.2-5.6,11.2h6.2c1.4-1.9,1.7-2.1,1.9-2.1c0.2,0,0.5,0.2,1.9,1.4c0.6,0.6,0.8,0.8,0.8,1c0,0.2-0.1,0.3-0.3,0.3
			h-21.2c-0.6,0-1.1,0.1-1.9,0.2l-0.3-1c0.8,0.2,1.5,0.2,2.1,0.2H803z M801.2,803.7c0-0.6-0.1-1.2-0.2-1.9c3.3,0.3,3.6,0.6,3.6,0.8
			c0,0.2-0.3,0.5-0.9,0.7v4h5c1.4-1.6,1.7-1.8,1.9-1.8c0.2,0,0.5,0.2,1.8,1.2c0.6,0.5,0.8,0.7,0.8,0.9c0,0.2-0.1,0.3-0.3,0.3h-18.5
			c-0.5,0-1.1,0.1-1.8,0.2l-0.3-1c0.8,0.2,1.5,0.2,2.1,0.2h6.8V803.7z M798.9,820.2c-0.8,0-1.2-0.5-1.2-2.5
			c-0.1-3.1-0.7-5.1-1.7-7.8c-0.1-0.1,0.2-0.3,0.3-0.2c2.6,2.7,4.2,5.8,4.2,8.2C800.4,819.4,799.8,820.2,798.9,820.2z"/>
		<path class="st0" d="M821.6,806.4c-0.3,0.1-0.4,0.1-0.4-0.3c-0.1-0.3-0.1-0.4,0.2-0.5c1.5-0.5,3.8-1.5,5.5-2.3
			c0.2,0,0.4,0.1,0.4,0.3c0,2.1-0.1,3.6-0.1,5.7v8.1c0,2.6,0,2.9,0.3,3.5c0.3,0.5,1.1,0.6,2.2,0.7c0.2,0,0.2,0.1,0.2,0.4
			c0,0.3-0.1,0.4-0.2,0.4c-1.2-0.1-2.6-0.1-3.8-0.1c-1.4,0-2.7,0-4,0.1c-0.2,0-0.3-0.1-0.3-0.4c0-0.3,0.1-0.4,0.3-0.4
			c1.1-0.1,2-0.1,2.2-0.7c0.3-0.6,0.3-1.7,0.3-3.5v-9.3c0-1-0.1-1.7-0.3-2c-0.2-0.3-0.7-0.3-1.5-0.1L821.6,806.4z"/>
		<path class="st0" d="M847.7,813.1c0,6-2.2,9.8-5.8,9.8c-3.7,0-5.8-3.6-5.8-9.6c0-6.1,2.1-9.8,5.8-9.8
			C845.5,803.5,847.7,807.2,847.7,813.1z M839.1,813.2c0,5.4,0.5,8.9,2.8,8.9c2.2,0,2.7-3.5,2.7-8.9c0-5.4-0.5-8.9-2.7-8.9
			C839.7,804.3,839.1,807.8,839.1,813.2z"/>
		<path class="st0" d="M864.1,813.1c0,6-2.2,9.8-5.8,9.8c-3.7,0-5.8-3.6-5.8-9.6c0-6.1,2.1-9.8,5.8-9.8
			C861.9,803.5,864.1,807.2,864.1,813.1z M855.5,813.2c0,5.4,0.5,8.9,2.8,8.9c2.2,0,2.7-3.5,2.7-8.9c0-5.4-0.5-8.9-2.7-8.9
			C856.1,804.3,855.5,807.8,855.5,813.2z"/>
		<path class="st0" d="M888.2,803.1c1.1-1.1,1.3-1.2,1.5-1.2c0.3,0,0.5,0.2,1.5,0.9c0.4,0.4,0.6,0.5,0.6,0.8c0,0.3-0.1,0.4-0.7,0.8
			v2.9c0,13.4,0.1,14.4,0.1,14.9c0,1.3-0.2,1.6-0.9,2.1c-0.6,0.4-1.4,0.6-2,0.6c-0.4,0-0.4-0.1-0.6-0.7c-0.2-1-0.6-1.4-2.9-2
			c-0.1,0-0.1-0.3,0-0.3c1.4,0.1,2.3,0.1,3.4,0.1c0.4,0,0.4-0.1,0.4-0.4v-17.9H874v1.2c0,6.2-0.1,10.3-0.8,13.3
			c-0.7,3-1.9,4.8-4.1,6.8c-0.1,0.1-0.3-0.1-0.3-0.2c1.2-2.2,1.9-4.1,2.3-7.1c0.3-2.3,0.4-5.2,0.4-9.4c0-3.2-0.1-5.1-0.2-6.8
			c1.4,0.7,1.6,0.8,2.9,1.5H888.2z M882.1,811.5h2.5c0.9-1.1,1.2-1.3,1.4-1.3c0.2,0,0.5,0.2,1.4,0.9c0.4,0.3,0.6,0.5,0.6,0.7
			s-0.1,0.3-0.3,0.3h-11.5c-0.3,0-0.7,0.1-1.1,0.2l-0.3-1c0.5,0.2,0.9,0.2,1.3,0.2h3.7v-3.3H877c-0.3,0-0.7,0.1-1.1,0.2l-0.3-1
			c0.5,0.2,0.9,0.2,1.3,0.2h2.8v-1.1c0-0.5-0.1-1.2-0.1-2.1c2.9,0.3,3.2,0.5,3.2,0.8c0,0.2-0.2,0.4-0.7,0.7v1.7h1.6
			c0.9-1,1.2-1.2,1.4-1.2c0.2,0,0.5,0.2,1.4,0.9c0.4,0.3,0.6,0.5,0.6,0.7c0,0.2-0.1,0.3-0.3,0.3h-4.6V811.5z M878.3,820.2v0.8
			c0,0.7-0.4,1-1.3,1c-0.8,0-1-0.1-1-0.9c0-0.8,0.1-1.6,0.1-5c0-0.9,0-1.8-0.1-2.7c1.2,0.5,1.4,0.6,2.4,1.3h4.8c0.8-0.9,1-1,1.2-1
			c0.3,0,0.5,0.2,1.3,0.8c0.4,0.3,0.5,0.5,0.5,0.7c0,0.2,0,0.2-0.6,0.7v0.7c0,1.9,0.1,3.2,0.1,3.7c0,0.6-0.4,0.9-1.4,0.9
			c-0.7,0-1-0.2-1-0.8v-0.4H878.3z M883.4,815.4h-5v4.2h5V815.4z"/>
		<path class="st0" d="M916.6,817c1.4-1.7,1.7-1.9,1.9-1.9c0.2,0,0.5,0.2,1.9,1.3c0.6,0.5,0.8,0.8,0.8,0.9c0,0.2-0.1,0.3-0.3,0.3h-9
			c0,2.8,0.1,5.3,0.1,6.4c0,0.8-0.5,1.1-1.6,1.1c-0.8,0-1.1-0.2-1.1-0.9c0-0.7,0.1-2.7,0.1-6.6h-9.2c-0.6,0-1.1,0.1-1.9,0.2l-0.3-1
			c0.9,0.2,1.5,0.2,2.1,0.2h2.3v-3.6c0-1.3,0-2.6-0.1-3.9c1.3,0.5,1.5,0.6,2.7,1.2h4.3V806h-4.8c-1.6,2.4-3.4,4.2-5.8,5.7
			c-0.1,0.1-0.4-0.1-0.3-0.2c1.7-1.7,3.5-4.7,4.5-7.4c0.4-1.1,0.7-2.1,0.8-3c2.8,0.8,3.5,1.1,3.5,1.6c0,0.3-0.3,0.5-1.1,0.6
			c-0.4,0.8-0.8,1.5-1.2,2.2h11c1.4-1.6,1.7-1.8,1.8-1.8c0.2,0,0.5,0.2,1.8,1.2c0.6,0.5,0.8,0.7,0.8,0.9c0,0.2-0.1,0.3-0.3,0.3h-8.2
			v4.8h3.1c1.3-1.5,1.5-1.7,1.7-1.7c0.3,0,0.5,0.2,1.8,1.1c0.6,0.5,0.8,0.7,0.8,0.9c0,0.2-0.1,0.3-0.4,0.3h-6.9v0.9
			c0,1.5,0,3.1,0,4.7H916.6z M909.4,811.4h-4.5v5.6h4.5V811.4z"/>
		<path class="st0" d="M934.3,806.5c1.1-1.4,1.4-1.6,1.6-1.6c0.2,0,0.5,0.2,1.7,1.1c0.5,0.4,0.7,0.7,0.7,0.8c0,0.2-0.1,0.3-0.3,0.3
			h-9.1c-0.5,0-1.1,0.1-1.8,0.2l-0.3-1c0.8,0.2,1.5,0.2,2.1,0.2H934.3z M930.4,823.2v0.7c0,0.7-0.5,1-1.4,1c-0.7,0-1.1-0.2-1.1-0.9
			c0-0.8,0.1-1.7,0.1-5c0-1.2,0-2.4-0.2-3.6c1.3,0.5,1.5,0.6,2.8,1.3h3.1c0.9-1.1,1.1-1.2,1.4-1.2c0.3,0,0.5,0.2,1.4,0.9
			c0.4,0.4,0.6,0.5,0.6,0.8c0,0.2-0.2,0.5-0.8,0.9v0.9c0,2.4,0.1,4.2,0.1,4.7c0,0.7-0.5,1-1.4,1c-0.7,0-1.1-0.3-1.1-0.8v-0.6H930.4z
			 M932.8,803.1c1.1-1.4,1.5-1.6,1.6-1.6c0.2,0,0.5,0.2,1.7,1.1c0.5,0.4,0.7,0.6,0.7,0.8c0,0.2-0.1,0.3-0.3,0.3h-6.7
			c-0.5,0-0.9,0.1-1.5,0.2l-0.3-1c0.7,0.2,1.3,0.2,1.8,0.2H932.8z M933.2,810c1-1.2,1.3-1.4,1.5-1.4c0.2,0,0.5,0.2,1.5,1
			c0.4,0.4,0.6,0.6,0.6,0.8c0,0.2-0.1,0.3-0.3,0.3h-6.7c-0.5,0-1,0.1-1.6,0.2l-0.3-1c0.8,0.2,1.3,0.2,1.9,0.2H933.2z M933.2,813.4
			c1-1.2,1.3-1.5,1.5-1.5c0.2,0,0.5,0.2,1.6,1c0.4,0.3,0.7,0.6,0.7,0.8c0,0.2-0.1,0.3-0.3,0.3h-6.6c-0.5,0-0.9,0.1-1.6,0.2l-0.3-1
			c0.7,0.2,1.3,0.2,1.8,0.2H933.2z M933.9,817.4h-3.5v5.2h3.5V817.4z M946.6,803.8h-6.1c-0.6,0-1.1,0.1-1.9,0.2l-0.3-1
			c0.9,0.2,1.5,0.2,2.2,0.2h5.9c1-1.1,1.2-1.2,1.4-1.2c0.3,0,0.5,0.1,1.5,1c0.5,0.4,0.6,0.6,0.6,0.8c0,0.2-0.1,0.3-0.8,0.9v1.3
			c0,3.5,0.1,6,0.1,6.7c0,0.8-0.5,1.1-1.4,1.1c-0.8,0-1.1-0.3-1.1-0.9v-1.1h-5.8v9.1c0,1,0.6,1.2,3.4,1.2c2.5,0,3.4-0.1,3.8-0.5
			c0.4-0.4,0.8-1.1,1.6-3.8c0-0.1,0.3-0.1,0.3,0.1c0,1-0.1,2.3-0.1,2.9c0,0.5,0,0.5,0.5,0.7c0.3,0.2,0.5,0.5,0.5,0.9
			c0,0.8-0.4,1.3-1.6,1.6c-1,0.3-2.7,0.4-5.1,0.4c-4.5,0-5.7-0.6-5.7-3.2c0-1.1,0.1-2.6,0.1-6c0-2.8,0-3.5-0.2-5.3
			c1.3,0.6,1.5,0.6,2.8,1.4h5.5V803.8z"/>
		<path class="st0" d="M955.5,812.1c-0.1,0.1-0.3-0.3-0.2-0.3c3-1.6,6-4.2,8.1-6.9c1.1-1.4,1.9-2.8,2.3-4c2.9,1.1,3.4,1.3,3.4,1.6
			c0,0.2-0.3,0.4-0.9,0.5c1.6,1.8,3.5,3.2,5.5,4.2c2,1,4.1,1.6,6.3,2c0.1,0,0.1,0.3,0,0.3c-0.8,0.1-1.2,0.5-1.6,1.8
			c-0.1,0.4-0.2,0.6-0.4,0.6c-0.3,0-0.8-0.2-1.4-0.5c-1.3-0.7-3.2-1.9-4.4-2.9c-1.5-1.3-2.9-2.9-4.3-5.3
			C964.9,807.2,960.3,810.5,955.5,812.1z M960,819.5c0,2.4-1,4-2.6,4c-0.8,0-1.4-0.5-1.4-1.4c0-0.7,0.3-1,1.2-1.4
			c1.6-0.6,2.1-1.4,2.3-3.2c0-0.1,0.3-0.2,0.4,0C959.9,818.3,960,818.9,960,819.5z M971.2,811.6c0.9-1,1.1-1.2,1.4-1.2
			c0.3,0,0.5,0.2,1.5,1c0.5,0.4,0.6,0.6,0.6,0.8c0,0.3-0.2,0.5-0.9,0.7c-0.7,1.4-1.4,2.4-2,3.5c-0.4,0.4-0.6,0.5-1,0.5
			c-0.8,0-1.7-0.5-1.7-0.9c0-0.2,0.1-0.3,0.2-0.5c0.8-0.9,1.4-2,2.1-3.2H962c-1.1,0-1.5,0-2.2,0.1l-0.3-1c0.8,0.2,1.3,0.2,2.4,0.2
			H971.2z M964.4,821.9c0,0.8,0.4,0.8,3.3,0.8c1.6,0,2.5,0,3.2-0.3c0.9-0.4,1.2-1.3,1.7-3.2c0-0.1,0.3-0.1,0.3,0.1
			c0,0.7-0.1,1.5-0.1,2.1c0,0.6,0,0.7,0.7,1c0.3,0.1,0.5,0.4,0.5,0.8c0,0.6-0.4,1-1.3,1.3c-1,0.3-2.7,0.4-5.4,0.4
			c-4.6,0-5.3-0.4-5.3-3c0-0.4,0.1-0.8,0.1-2.4c0-0.9,0-1.8-0.1-2.7c2.9,0.3,3.2,0.4,3.2,0.8c0,0.2-0.2,0.4-0.8,0.7V821.9z
			 M968.2,808.7c0.9-1.1,1.2-1.3,1.4-1.3c0.2,0,0.5,0.2,1.5,0.9c0.4,0.3,0.6,0.5,0.6,0.7c0,0.2-0.1,0.3-0.3,0.3h-6.7
			c-0.5,0-0.9,0.1-1.5,0.2l-0.3-1c0.7,0.2,1.2,0.2,1.8,0.2H968.2z M968.7,820.5c-0.7,0-0.9-0.2-1.3-1.6c-0.3-1-0.8-1.6-1.8-2.6
			c-0.1-0.1,0-0.2,0.1-0.2c3,0.6,4.2,1.4,4.2,2.9C970,819.9,969.4,820.5,968.7,820.5z M977.1,823.5c-0.8,0-1.1-0.5-1.4-2
			c-0.3-1.6-0.8-2.6-1.7-3.7c-0.1-0.1,0.1-0.3,0.2-0.2c2.9,1.2,4.3,2.6,4.3,4.3C978.5,822.8,977.9,823.5,977.1,823.5z"/>
		<path class="st0" d="M1002.8,809.3c0.2-0.1,0.6-0.3,1-0.3c0.6,0,1.6,0.3,2.3,0.8c0.3,0.2,0.5,0.6,0.5,0.9c0,0.4-0.3,0.8-0.8,0.8
			c-0.2,0-0.7-0.1-1.3-0.2c-0.8-0.1-1.5-0.2-2.7-0.2c-0.4,0-1,0-1.6,0c-0.1,3.1-0.6,5.6-1.7,7.4c-1.4,2.3-3.8,4.1-7.5,5
			c-0.4,0.1-0.7,0.1-0.8,0.1c-0.2,0-0.3-0.1-0.3-0.2c0-0.1,0-0.2,0.2-0.2c2.8-1,5.3-3.1,6.7-5.7c0.8-1.6,1.3-3.8,1.4-6.4
			c-1.5,0.1-2.9,0.2-4.8,0.4c0,1.4,0,2.9,0,4.3c0,1.2-0.7,1.5-1,1.5c-0.8,0-1.2-0.3-1.2-1.3c0-0.9,0.1-2.4,0.2-4.3
			c-0.7,0.1-1.3,0.2-1.8,0.4c-0.5,0.2-0.9,0.3-1.1,0.5c-0.3,0.3-0.7,0.3-0.9,0.3c-0.5,0-1-0.3-1.7-1c-0.7-0.7-0.8-1.2-0.8-1.7
			c0-0.3,0.1-0.4,0.2-0.4c0.1,0,0.2,0.1,0.4,0.2c0.7,0.5,1.2,0.8,1.9,0.8c0.4,0,1.1,0,1.8-0.1c0.8-0.1,1.2-0.2,2.1-0.3
			c0-0.9,0-1.7,0-2.7c0-0.5,0-0.9-0.3-1.1c-0.2-0.2-0.9-0.6-1.4-0.7c-0.2-0.1-0.3-0.1-0.3-0.2c0-0.1,0.2-0.3,0.3-0.4
			c0.3-0.2,0.7-0.3,1.1-0.3c0.6,0,1.6,0.3,2.3,0.7c0.6,0.3,0.8,0.7,0.8,1c0,0.3-0.1,0.5-0.2,0.7c-0.1,0.2-0.2,0.5-0.2,1
			c0,0.4-0.1,1-0.1,1.8c2-0.2,3.1-0.3,4.9-0.4c0-1.1,0-2,0-2.8c0-1.3,0-1.8-0.2-2.2c-0.1-0.2-0.3-0.4-0.7-0.6
			c-0.3-0.1-0.6-0.2-0.9-0.3c-0.2-0.1-0.3-0.1-0.3-0.2c0-0.1,0.1-0.3,0.4-0.5c0.3-0.2,0.5-0.3,0.9-0.3c0.5,0,1.2,0.1,2.1,0.4
			c0.9,0.3,1.3,0.8,1.3,1.2c0,0.3-0.1,0.5-0.3,0.8c-0.2,0.3-0.2,0.5-0.2,0.8c-0.1,1.4-0.1,2.5-0.1,3.6c0.5,0,1-0.1,1.5-0.1
			C1002.2,809.5,1002.5,809.5,1002.8,809.3z"/>
		<path class="st0" d="M1012.4,817.9c-0.3,0.2-0.4,0.3-0.6,0.3c-0.2,0-0.3-0.1-0.3-0.3c0-0.1,0.2-0.3,0.4-0.5c3.1-2.3,6.2-5.5,8.3-8
			c1.9-2.2,2.8-3.5,3.1-4.1c0.3-0.6,0.4-0.8,0.4-1.1c0-0.2-0.3-0.6-0.9-0.9c-0.3-0.2-0.5-0.2-0.5-0.4c0-0.2,0.4-0.6,1.1-0.6
			c0.6,0,1.8,0.4,2.8,1c0.7,0.4,1.1,1,1.1,1.4c0,0.4-0.3,0.7-0.9,0.9c-0.3,0.1-0.4,0.2-0.5,0.4c-1.5,1.6-2.7,3-3.7,4
			c1,0.7,1.7,1.2,1.7,1.8c0,0.2,0,0.4-0.1,0.5c-0.1,0.1-0.1,0.5-0.1,0.9c0,1.1,0,2.3,0,3.7c0,2,0.1,3.9,0.1,5.9c0,0.8-0.5,1.2-1,1.2
			c-0.5,0-0.9-0.2-1.2-0.5c-0.4-0.5-0.5-1.1-0.5-1.7c0-0.2,0.1-0.5,0.1-0.6c0.2-0.6,0.3-1.7,0.3-2.4c0-1.9,0-4.4,0-6
			c0-1.1-0.1-1.4-0.2-1.7C1018.6,814,1015.5,816.3,1012.4,817.9z"/>
		<path class="st0" d="M1045.7,811.7c1.6,0.7,2.4,1.5,2.4,2.6c0,0.8-0.6,1.4-1.1,1.4c-0.5,0-0.9-0.2-1.4-0.8
			c-0.6-0.7-1.2-1.4-1.9-1.9c-0.8-0.7-1.7-1.2-2.7-1.5c0,1.5,0,2.9,0,4.5c0,1.1,0.1,3.5,0.1,6.3c0,1-0.4,1.2-1,1.2
			c-0.4,0-0.8-0.1-1.1-0.6c-0.4-0.7-0.6-1.6-0.6-2.1c0-0.1,0.1-0.6,0.1-0.8s0.1-0.3,0.1-0.4c0-0.3,0.1-1.1,0.1-5.8
			c0-2.5,0-4.7,0-7.1c0-0.7,0-1.8-0.1-2.2c-0.1-0.2-0.3-0.4-0.5-0.6c-0.4-0.2-0.7-0.4-0.9-0.4c-0.2-0.1-0.3-0.1-0.3-0.2
			c0-0.2,0.2-0.3,0.3-0.4c0.2-0.1,0.5-0.2,0.7-0.2c0.6,0,1.4,0.1,2.6,0.7c0.7,0.3,1,0.7,1,1.2c0,0.3-0.2,0.6-0.4,0.8
			c-0.1,0.1-0.2,0.3-0.2,0.5c-0.1,0.7-0.1,2.3-0.1,4.7C1042.6,810.8,1044.3,811.1,1045.7,811.7z"/>
	</g>
</g>
</svg>
