<svg xmlns="http://www.w3.org/2000/svg" width="350.011" height="41.416" viewBox="0 0 350.011 41.416">
  <g id="univ-logo" transform="translate(-214.8 -428.486)">
    <path id="パス_44" data-name="パス 44" d="M257.878,429.878a1.246,1.246,0,0,0-1.122-.7h-8.365a1.219,1.219,0,0,0-.954.451L236.4,445.05l-11.091-15.422a1.231,1.231,0,0,0-.958-.451h-8.312a1.231,1.231,0,0,0-1.116.7,1.25,1.25,0,0,0,.155,1.321l16.686,22.367v12.049A1.244,1.244,0,0,0,233,466.853h6.79a1.232,1.232,0,0,0,1.236-1.238V453.566L257.714,431.2a1.261,1.261,0,0,0,.164-1.321" transform="translate(0 0.822)" fill="#fff"/>
    <path id="パス_45" data-name="パス 45" d="M247.109,429.178a1.05,1.05,0,0,1,.682.3l20.241,22.369c.147.162.273.12.273-.1V429.589a.408.408,0,0,1,.409-.411h8.1a.407.407,0,0,1,.407.411v36.859a.406.406,0,0,1-.407.407H270.08a1.054,1.054,0,0,1-.68-.3l-22.081-24.625c-.147-.166-.269-.12-.269.1v24.417a.407.407,0,0,1-.407.407H238.72a.406.406,0,0,1-.407-.407V429.589a.407.407,0,0,1,.407-.411Z" transform="translate(27.921 0.822)" fill="#fff"/>
    <path id="パス_46" data-name="パス 46" d="M297.759,429.178h-8.024a.4.4,0,0,0-.4.4v20.943c-.033,3.178-.925,4.948-2.435,6.2s-4.082,2.048-7.7,2.043-6.186-.792-7.711-2.043c-1.505-1.251-2.4-3.021-2.426-6.2V429.576a.4.4,0,0,0-.4-.4h-8.022a.4.4,0,0,0-.407.4v20.943c-.063,6.429,2.715,11.01,6.593,13.427,3.846,2.439,8.391,3.012,12.377,3.025,3.977-.013,8.531-.586,12.379-3.025,3.874-2.417,6.652-7,6.582-13.427V429.576a.4.4,0,0,0-.4-.4" transform="translate(53.947 0.822)" fill="#fff"/>
    <path id="パス_47" data-name="パス 47" d="M298.448,435.588v-2.037h-2.855v-2.4h2.855V428.8l3.135.14c.278,0,.582.171.582.359s-.166.311-.558.505v1.345h2.6v-2.4l3.187.168c.168,0,.56.083.56.361,0,.19-.164.28-.56.448v1.426h3.887v2.4h-3.887v2.037h4.336v2.489h-7.077v1.512h5.7v9.737h-3.268a15.98,15.98,0,0,0,4.832,2.513,9.709,9.709,0,0,0-1.785,2.522,19.039,19.039,0,0,1-5.954-3.664l1.4-1.372h-4.5l1.177,1.03a.91.91,0,0,1,.363.562c0,.247-.28.311-1.092.247a24,24,0,0,1-5.311,3.338,14.016,14.016,0,0,0-2.128-2.384,17.542,17.542,0,0,0,5.092-2.793h-3.24v-9.737h5.561v-1.512h-7.079v-1.813h-2.205v.674a17.606,17.606,0,0,0,3.579,5.173A5.954,5.954,0,0,0,294,444.539a17.025,17.025,0,0,1-1.792-2.85v12.779h-3V443.677a20.33,20.33,0,0,1-1.844,3.99,9.448,9.448,0,0,0-2.43-2.034,23.279,23.279,0,0,0,4.274-9.369h-3.439v-2.855h3.439V428.6l2.936.171c.372.028.7.142.7.446,0,.192-.42.416-.643.531v3.662h2.708v2.179Zm.586,7.781h2.461v-1.407h-2.461Zm2.461,2.093h-2.461v1.431h2.461Zm2.71-11.911h-2.6v2.039h2.6Zm.446,9.818h2.52v-1.407h-2.52Zm2.52,2.093h-2.52v1.431h2.52Z" transform="translate(83.29 0.134)" fill="#fff"/>
    <path id="パス_48" data-name="パス 48" d="M300.779,452.264a45.857,45.857,0,0,0,5.143-9.253,9.987,9.987,0,0,0,2.575,2.148,68.445,68.445,0,0,1-4.141,8,1.554,1.554,0,0,1,.2.61c0,.2-.168.278-.335.278a1.282,1.282,0,0,1-.586-.193Zm1.813-16.249a33.478,33.478,0,0,1,5.261,3,20.142,20.142,0,0,0-1.82,2.791,31.986,31.986,0,0,0-5.117-2.852Zm2.013-6.685a19.617,19.617,0,0,1,4.924,3.054c-.7.895-1.59,2.181-1.986,2.737a35.2,35.2,0,0,0-4.837-3.1Zm18.46,14.179h4.082v3.047h-5.7a24.541,24.541,0,0,0,6.486,5.375,16.2,16.2,0,0,0-2.518,2.544,30.976,30.976,0,0,1-6.849-6.265l2.238-1.654h-6.514l2.4,1.625a.416.416,0,0,1,.249.337c0,.276-.394.446-.89.361a25.1,25.1,0,0,1-6.182,5.6,14.342,14.342,0,0,0-2.912-2.406,23.549,23.549,0,0,0,6.768-5.513h-5.038v-3.047h2.548V430.452l1.566.335a28.213,28.213,0,0,0,10.6-2.122l1.988,2.708a1.085,1.085,0,0,1,.276.567c0,.217-.252.276-.418.276a2.039,2.039,0,0,1-.868-.252,39.939,39.939,0,0,1-9.756,1.536v2.131H326.39v3.1h-3.325Zm-3.27-4.78h-5.173v4.78h5.173Z" transform="translate(102.099 0.213)" fill="#fff"/>
    <path id="パス_49" data-name="パス 49" d="M320.641,452.41v1.313h-3.41V429.085h23.855V453.7H337.7V452.41Zm17.06-20.416h-17.06v17.338H337.7Zm-7.02,6.853h4.806v2.6h-1.428a16.918,16.918,0,0,1,1.929,2.6c-.221.142-.952.645-1.422.976h2.323v2.715h-15.3v-2.715h5.729v-3.579h-4.476v-2.6h4.476V436.3H321.9v-2.68h14.682v2.68h-5.9Zm2.29,2.6h-2.29v3.579h2.43a18.061,18.061,0,0,0-1.789-2.4Z" transform="translate(121.636 0.711)" fill="#fff"/>
    <path id="パス_50" data-name="パス 50" d="M357.721,450.241v3.3H332.186v-3.3H345.44a76.647,76.647,0,0,0,3.277-12.165l3.493.956c.166.055.475.142.475.42,0,.19-.228.3-.61.448-.287,1.059-1.542,5.425-1.824,6.32-.669,2.179-1.035,3.156-1.341,4.021Zm-14.626-21.615,3.607.085c.138,0,.532.028.532.339,0,.217-.195.363-.477.5v4.36h9.562v3.275h-22.9v-3.275h9.68Zm-3.356,9.96a37.887,37.887,0,0,1,3.3,9.787c-.672.164-2.912.807-3.384.952a30.981,30.981,0,0,0-3.1-9.682Z" transform="translate(139.395 0.166)" fill="#fff"/>
    <path id="パス_51" data-name="パス 51" d="M347.981,439.148v-3.41h10.961v-7.164l3.664.2c.418.028.617.14.617.367,0,.243-.308.352-.617.442v6.156H373.4v3.41H362.692c1.258,4.108,3.828,9.17,11.1,12.832a8.579,8.579,0,0,0-2.715,2.772c-2.995-1.343-7.772-5.456-10.266-11.018a21.687,21.687,0,0,1-11.154,11.073,8.634,8.634,0,0,0-2.494-3.1c2.352-.925,9.6-3.837,11.384-12.554Z" transform="translate(157.185 0.105)" fill="#fff"/>
    <path id="パス_52" data-name="パス 52" d="M388.409,445.01v2.881H377.753V451.7c0,2.94-2.072,3.047-6.6,2.993a12.433,12.433,0,0,0-1.094-3.327c.477.028,2.629.109,3.049.109,1.2,0,1.2-.171,1.2-1.621v-1.96H363.351V445.01h10.964v-2.037l1.452.188c.925-.689,2.015-1.564,2.489-1.949h-9.872v-2.831h13.93l1.006,1.988a44.741,44.741,0,0,1-5.567,4.64Zm-13.7-11.047a17.317,17.317,0,0,0-2.769-4.108l2.993-1.369a20.82,20.82,0,0,1,2.8,4.082c-.308.166-2.52,1.31-2.629,1.4h4.137a28.19,28.19,0,0,0,3.275-4.889l3.325,1.087c.168.057.446.171.446.42,0,.337-.446.4-.952.448-.978,1.538-1.645,2.432-2.008,2.933h4.808v7.107H384.8V436.65H366.906v4.421h-3.273v-7.107h4.248a24.241,24.241,0,0,0-2.376-3.406l2.824-1.461a16.846,16.846,0,0,1,2.741,3.892,13.592,13.592,0,0,0-1.82.976Z" transform="translate(176.403 0)" fill="#fff"/>
    <path id="パス_53" data-name="パス 53" d="M288.895,447.628l-3.688-4.758h1.807l2.621,3.367,2.6-3.367h1.822l-3.686,4.758v3.183h-1.479Z" transform="translate(83.607 17.081)" fill="#fff"/>
    <path id="パス_54" data-name="パス 54" d="M293.849,442.78c3.329,0,4.5,2.047,4.5,4.228,0,1.649-.927,4.1-4.5,4.1s-4.493-2.454-4.493-4.1c0-2.181,1.172-4.228,4.493-4.228m3.028,4.139c0-1.912-1.3-2.8-3.028-2.8s-3.021.892-3.021,2.8c0,2.251,1.612,2.866,3.021,2.866s3.028-.615,3.028-2.866" transform="translate(88.534 16.974)" fill="#fff"/>
    <path id="パス_55" data-name="パス 55" d="M294.107,442.87h1.477v3.706l4.183-3.706h2.1l-3.609,3.146,3.973,4.795H300.3l-3.106-3.872-1.606,1.4v2.472h-1.477Z" transform="translate(94.176 17.081)" fill="#fff"/>
    <path id="パス_56" data-name="パス 56" d="M302.462,442.78c3.321,0,4.5,2.047,4.5,4.228,0,1.649-.927,4.1-4.5,4.1s-4.5-2.454-4.5-4.1c0-2.181,1.177-4.228,4.5-4.228m3.021,4.139c0-1.912-1.3-2.8-3.021-2.8s-3.03.892-3.03,2.8c0,2.251,1.617,2.866,3.03,2.866s3.021-.615,3.021-2.866" transform="translate(98.749 16.974)" fill="#fff"/>
    <path id="パス_57" data-name="パス 57" d="M302.71,442.87h1.472v3.146h5.073V442.87h1.474v7.941h-1.474v-3.419h-5.073v3.419H302.71Z" transform="translate(104.392 17.081)" fill="#fff"/>
    <path id="パス_58" data-name="パス 58" d="M310.663,442.869h1.682l3.668,7.941h-1.56l-.792-1.82h-4.355l-.8,1.82h-1.571Zm2.415,4.786-1.577-3.542-1.577,3.542Z" transform="translate(109.409 17.08)" fill="#fff"/>
    <path id="パス_59" data-name="パス 59" d="M312.977,444.793h-.02v6.018h-1.306V442.87h1.982l2.358,5.884,2.4-5.884h1.943v7.941h-1.3v-6.018h-.024l-2.424,6.018h-1.172Z" transform="translate(115.01 17.081)" fill="#fff"/>
    <path id="パス_60" data-name="パス 60" d="M319.909,442.869h1.682l3.662,7.941H323.7l-.792-1.82h-4.351l-.8,1.82h-1.571Zm2.419,4.786-1.579-3.542-1.579,3.542Z" transform="translate(120.395 17.08)" fill="#fff"/>
    <path id="パス_61" data-name="パス 61" d="M322.921,442.87h1.555l5.053,5.731V442.87h1.415v7.941h-1.356l-5.256-5.939v5.939h-1.411Z" transform="translate(128.393 17.081)" fill="#fff"/>
    <path id="パス_62" data-name="パス 62" d="M333.132,448.839a2.678,2.678,0,0,0,.1.949h-1.321a2.937,2.937,0,0,1-.07-.586,4.6,4.6,0,0,1-2.441.781c-.737,0-2.163-.324-2.163-1.765,0-1.98,2.809-2.26,4.6-2.369v-.258c0-.451-.385-.774-1.446-.774-1.183,0-1.428.464-1.505.781H327.55c.311-1.6,1.8-1.868,2.837-1.868,2.688,0,2.745,1.376,2.745,2.19Zm-1.289-2.013a9.777,9.777,0,0,0-2.006.3c-.8.192-1.173.479-1.183.993s.3.818.938.818a4.172,4.172,0,0,0,2.251-.768Z" transform="translate(133.52 18.101)" fill="#fff"/>
    <path id="パス_63" data-name="パス 63" d="M330.486,444.951h1v-1.918h1.293v1.918h1.94v1.155h-1.94V448.8c0,.411.149.86.9.86a4.719,4.719,0,0,0,1.1-.166v1.194a9.439,9.439,0,0,1-1.391.127c-1.229,0-1.9-.411-1.9-1.7v-3h-1Z" transform="translate(137.376 17.275)" fill="#fff"/>
    <path id="パス_64" data-name="パス 64" d="M333.154,442.78h1.284v1.205h-1.284Zm0,2.268h1.284v5.869h-1.284Z" transform="translate(140.544 16.974)" fill="#fff"/>
    <path id="パス_65" data-name="パス 65" d="M334.3,446.857a3.129,3.129,0,0,1,6.258,0,3.129,3.129,0,0,1-6.258,0m4.948-.031a1.822,1.822,0,1,0-3.636,0,1.826,1.826,0,1,0,3.636,0" transform="translate(141.91 18.101)" fill="#fff"/>
    <path id="パス_66" data-name="パス 66" d="M337.561,443.921h1.267v.735a2.662,2.662,0,0,1,2.091-.928c1.162,0,2.181.514,2.181,2.3v3.758h-1.286v-3.255c0-1.157-.33-1.649-1.2-1.649a1.969,1.969,0,0,0-1.768.864v4.04h-1.288Z" transform="translate(145.778 18.101)" fill="#fff"/>
    <path id="パス_67" data-name="パス 67" d="M346.451,448.839a2.775,2.775,0,0,0,.1.949h-1.319a2.79,2.79,0,0,1-.074-.586,4.59,4.59,0,0,1-2.441.781c-.737,0-2.161-.324-2.161-1.765,0-1.98,2.807-2.26,4.6-2.369v-.258c0-.451-.387-.774-1.444-.774-1.181,0-1.435.464-1.507.781h-1.341c.317-1.6,1.8-1.868,2.835-1.868,2.7,0,2.745,1.376,2.745,2.19Zm-1.288-2.013a9.711,9.711,0,0,0-2,.3c-.8.192-1.175.479-1.186.993s.3.818.934.818a4.168,4.168,0,0,0,2.255-.768Z" transform="translate(149.339 18.101)" fill="#fff"/>
    <rect id="長方形_57" data-name="長方形 57" width="1.291" height="7.941" transform="translate(497.394 459.952)" fill="#fff"/>
    <path id="パス_68" data-name="パス 68" d="M355.516,447.4c0,2.553-1.553,3.6-4.012,3.6s-4.01-1.048-4.01-3.6V442.87h1.474v4.423c0,1.308.446,2.382,2.535,2.382s2.537-1.074,2.537-2.382V442.87h1.474Z" transform="translate(157.573 17.081)" fill="#fff"/>
    <path id="パス_69" data-name="パス 69" d="M351.835,443.921H353.1v.735a2.659,2.659,0,0,1,2.087-.928c1.164,0,2.185.514,2.185,2.3v3.758h-1.291v-3.255c0-1.157-.333-1.649-1.192-1.649a1.954,1.954,0,0,0-1.765.864v4.04h-1.291Z" transform="translate(162.728 18.101)" fill="#fff"/>
    <path id="パス_70" data-name="パス 70" d="M355,442.78h1.293v1.205H355Zm0,2.268h1.293v5.869H355Z" transform="translate(166.486 16.974)" fill="#fff"/>
    <path id="パス_71" data-name="パス 71" d="M357.591,443.817l1.881,4.347,1.868-4.347h1.413l-2.658,5.869h-1.284l-2.634-5.869Z" transform="translate(167.885 18.206)" fill="#fff"/>
    <path id="パス_72" data-name="パス 72" d="M365.571,448.034a2.819,2.819,0,0,1-2.905,1.949,2.975,2.975,0,0,1-3.189-3.146,2.928,2.928,0,0,1,3.1-3.108c2.1.024,3.1,1.389,3.1,3.5h-4.889a1.765,1.765,0,0,0,1.835,1.66,1.577,1.577,0,0,0,1.54-.86Zm-1.264-1.846a1.586,1.586,0,0,0-1.772-1.372,1.6,1.6,0,0,0-1.711,1.372Z" transform="translate(171.803 18.101)" fill="#fff"/>
    <path id="パス_73" data-name="パス 73" d="M362.864,443.921h1.288v.875h.033a2.11,2.11,0,0,1,1.951-1.068,2.481,2.481,0,0,1,.453.024v1.463a2.371,2.371,0,0,0-.785-.112c-1.643.013-1.643,1.157-1.652,1.573v3.113h-1.288Z" transform="translate(175.825 18.101)" fill="#fff"/>
    <path id="パス_74" data-name="パス 74" d="M369.568,445.732a2,2,0,0,0-1.813-.919c-.938,0-1.249.383-1.249.711,0,.455.542.536,1.308.643,1.527.21,2.918.444,2.918,1.9,0,1.726-1.877,1.921-2.78,1.921a3.19,3.19,0,0,1-3-1.426l1.087-.669a2.186,2.186,0,0,0,2.032,1.006c.693,0,1.313-.219,1.313-.733,0-.444-.308-.49-1.68-.693-2.109-.278-2.544-.989-2.544-1.879,0-.617.455-1.87,2.627-1.87a3.382,3.382,0,0,1,2.855,1.387Z" transform="translate(178.299 18.095)" fill="#fff"/>
    <path id="パス_75" data-name="パス 75" d="M368.06,442.78h1.286v1.205H368.06Zm0,2.268h1.286v5.869H368.06Z" transform="translate(181.995 16.974)" fill="#fff"/>
    <path id="パス_76" data-name="パス 76" d="M369.2,444.951h1v-1.918h1.286v1.918h1.94v1.155h-1.94V448.8c0,.411.155.86.9.86a4.719,4.719,0,0,0,1.1-.166v1.194a9.34,9.34,0,0,1-1.391.127c-1.227,0-1.9-.411-1.9-1.7v-3h-1Z" transform="translate(183.347 17.275)" fill="#fff"/>
    <path id="パス_77" data-name="パス 77" d="M371.92,450.36a2.839,2.839,0,0,0,.794.131c1.059,0,1.411-.464,1.411-.917a2.046,2.046,0,0,0-.23-.914l-2.233-4.843h1.415l1.89,4.283,1.89-4.283h1.411l-2.9,6.339a2.365,2.365,0,0,1-2.325,1.54,3.473,3.473,0,0,1-1.127-.175Z" transform="translate(186.272 18.206)" fill="#fff"/>
  </g>
</svg>
