<svg xmlns="http://www.w3.org/2000/svg" width="335" height="53.206" viewBox="0 0 335 53.206">
  <g id="main-sp-years" transform="translate(-18.803 1120.736) rotate(-90)" opacity="0.2">
    <path id="パス_28" data-name="パス 28" d="M1081.134,21.417c1.076,4.382,2.152,4.535,5,4.843,2.229.308,12.223.692,22.6.692a89.491,89.491,0,0,0,9.3-.154,1.99,1.99,0,0,0,1.614-1.153c.384-1.307.538-2.844.692-3.459.23-1.076.846-1.845,1.46-1.845.538,0,1,.922,1.153,1.691.769,3.229,1.614,7.764,2.844,9.84a12.838,12.838,0,0,1,1.307,3.536c.077.308-.308.692-.769.692-.845,0-4.3-.154-9.916-.231-5.458-.077-18.988-.077-28.136,0-5.15,0-5.842-.077-7.072,5-.231.846-.846,1.845-1.691,1.845-.615,0-.923-1.23-.923-2.076,0-1.23.307-5.535.307-8.533,0-5.843-.461-10.378-.461-11.223,0-1.076.308-2.076,1-2.076S1080.672,19.649,1081.134,21.417Z" transform="translate(-6.378 0)" fill="#f6f6f6"/>
    <path id="パス_29" data-name="パス 29" d="M1101.892,136.34c-11.377,0-24.138-8.149-30.672-19.3-2.614-4.459-3.69-7.764-3.69-10.147,0-.538.384-1.768,1.153-1.768a.978.978,0,0,1,.692.538,39.639,39.639,0,0,0,10.378,12.991c6.227,5.151,14.144,8.456,21.755,8.456,5.3,0,11.454-1.307,14.375-4.612a8.749,8.749,0,0,0,1.691-4.612c0-4.535-5.227-6.611-9.148-6.611-6.611,0-11.608,3.382-11.608,9.225a8.9,8.9,0,0,0,.769,3.075.607.607,0,0,1-.538.846,3.449,3.449,0,0,1-1.46-.384,6.084,6.084,0,0,1-1.768-1.46,12.683,12.683,0,0,1-2.767-7.38c0-6.457,4.766-11.685,12.991-11.685a16.359,16.359,0,0,1,14.3,8.686,19.333,19.333,0,0,1,2.229,8.226C1120.572,130.651,1111.731,136.34,1101.892,136.34Z" transform="translate(0 -49.506)" fill="#f6f6f6"/>
    <path id="パス_30" data-name="パス 30" d="M1080.011,199.311a2.221,2.221,0,0,1,1.615.922,140.788,140.788,0,0,0,13.76,12.454c5,3.92,10.762,6.765,16.066,6.765,6.3,0,9.148-3.92,9.148-8.072,0-3.69-2.152-6.842-4.459-9.071-1-1-1.46-1.384-1.46-1.614a1.545,1.545,0,0,1,1.153-1,5.362,5.362,0,0,1,2.691,1.23c5.15,3.459,8.532,8.533,8.532,14.3,0,7.457-5.611,13.222-13.452,13.222-4.459,0-9.225-2.767-13.222-6.457-4.074-3.767-8.072-7.764-13.76-13.606-.231-.154-.538.154-.615.384-.385,3.459-.385,15.682,0,17.757a6.923,6.923,0,0,0,2.844,4.3c.692.538,1.384,1.23,1.384,1.691,0,1.153-1.614.923-2.768.384a38.519,38.519,0,0,0-8.072-2.767c-.461-.077-.769-.692-.769-1.153,0-.384.384-16.758.384-20.294,0-2.614-.154-5.689-.23-7.61C1078.782,200.541,1079.551,199.311,1080.011,199.311Z" transform="translate(-6.486 -105.483)" fill="#f6f6f6"/>
    <path id="パス_31" data-name="パス 31" d="M1102.279,329.5c-12.531,0-20.064-4.151-22.909-8.918a14.334,14.334,0,0,1-2.229-7.687c0-12.992,15.3-16.835,24.446-16.835,12.3,0,19.141,4.151,22.523,9.532a14.81,14.81,0,0,1,2.075,7.457C1126.186,325.732,1111.273,329.5,1102.279,329.5Zm18.3-21.6c-2.614-1.384-7.534-2.844-17.22-2.844-12.223,0-23.831,3-23.831,8.763,0,2.46,2.46,3.767,2.921,4,2.537,1.307,7.687,2.614,18.988,2.614,13.376,0,19.6-3.229,21.14-5.227a4.1,4.1,0,0,0,1.23-3.152C1123.8,310.2,1122.419,308.9,1120.574,307.9Z" transform="translate(-5.614 -162.028)" fill="#f6f6f6"/>
    <g id="グループ_26" data-name="グループ 26" transform="translate(1085.206 174.772)">
      <path id="パス_32" data-name="パス 32" d="M1117.138,411.154a1.063,1.063,0,0,1-.845.922c-1.692.077-4.843-.615-4.92-1.691-.231-2.844-.846-10.454-1.307-15.067-.077-.692.769-1.23,1.23-1.23,1.615,0,3.921.769,4.075,1.537C1115.908,398.316,1117.06,409.693,1117.138,411.154Z" transform="translate(-1110.06 -394.088)" fill="#f6f6f6"/>
    </g>
    <path id="パス_33" data-name="パス 33" d="M1080.011,454.556a2.222,2.222,0,0,1,1.615.923,140.778,140.778,0,0,0,13.76,12.453c5,3.921,10.762,6.765,16.066,6.765,6.3,0,9.148-3.921,9.148-8.072,0-3.69-2.152-6.842-4.459-9.071-1-1-1.46-1.384-1.46-1.614a1.545,1.545,0,0,1,1.153-1,5.362,5.362,0,0,1,2.691,1.23c5.15,3.459,8.532,8.533,8.532,14.3,0,7.457-5.611,13.222-13.452,13.222-4.459,0-9.225-2.767-13.222-6.458-4.074-3.767-8.072-7.764-13.76-13.606-.231-.154-.538.154-.615.384-.385,3.459-.385,15.682,0,17.758a6.923,6.923,0,0,0,2.844,4.3c.692.538,1.384,1.23,1.384,1.691,0,1.153-1.614.923-2.768.384a38.5,38.5,0,0,0-8.072-2.767c-.461-.077-.769-.692-.769-1.153,0-.384.384-16.758.384-20.294,0-2.614-.154-5.688-.23-7.61C1078.782,455.786,1079.551,454.556,1080.011,454.556Z" transform="translate(-6.486 -254.648)" fill="#f6f6f6"/>
    <path id="パス_34" data-name="パス 34" d="M1102.279,584.744c-12.531,0-20.064-4.151-22.909-8.917a14.336,14.336,0,0,1-2.229-7.687c0-12.991,15.3-16.835,24.446-16.835,12.3,0,19.141,4.151,22.523,9.532a14.81,14.81,0,0,1,2.075,7.456C1126.186,580.978,1111.273,584.744,1102.279,584.744Zm18.3-21.6c-2.614-1.384-7.534-2.844-17.22-2.844-12.223,0-23.831,3-23.831,8.763,0,2.46,2.46,3.767,2.921,4,2.537,1.307,7.687,2.614,18.988,2.614,13.376,0,19.6-3.228,21.14-5.227a4.1,4.1,0,0,0,1.23-3.151C1123.8,565.45,1122.419,564.142,1120.574,563.143Z" transform="translate(-5.614 -311.194)" fill="#f6f6f6"/>
    <path id="パス_35" data-name="パス 35" d="M1080.011,647.655a2.222,2.222,0,0,1,1.615.923,140.774,140.774,0,0,0,13.76,12.453c5,3.921,10.762,6.765,16.066,6.765,6.3,0,9.148-3.92,9.148-8.071,0-3.69-2.152-6.842-4.459-9.071-1-1-1.46-1.384-1.46-1.614a1.545,1.545,0,0,1,1.153-1,5.363,5.363,0,0,1,2.691,1.23c5.15,3.459,8.532,8.533,8.532,14.3,0,7.457-5.611,13.222-13.452,13.222-4.459,0-9.225-2.767-13.222-6.458-4.074-3.767-8.072-7.764-13.76-13.606-.231-.154-.538.154-.615.384-.385,3.459-.385,15.682,0,17.757a6.923,6.923,0,0,0,2.844,4.305c.692.538,1.384,1.23,1.384,1.691,0,1.153-1.614.922-2.768.385a38.493,38.493,0,0,0-8.072-2.767c-.461-.077-.769-.692-.769-1.153,0-.384.384-16.758.384-20.294,0-2.614-.154-5.688-.23-7.611C1078.782,648.886,1079.551,647.655,1080.011,647.655Z" transform="translate(-6.486 -367.495)" fill="#f6f6f6"/>
    <path id="パス_36" data-name="パス 36" d="M1102.279,777.843c-12.531,0-20.064-4.151-22.909-8.917a14.335,14.335,0,0,1-2.229-7.687c0-12.991,15.3-16.835,24.446-16.835,12.3,0,19.141,4.151,22.523,9.532a14.812,14.812,0,0,1,2.075,7.457C1126.186,774.077,1111.273,777.843,1102.279,777.843Zm18.3-21.6c-2.614-1.383-7.534-2.844-17.22-2.844-12.223,0-23.831,3-23.831,8.763,0,2.46,2.46,3.767,2.921,4,2.537,1.307,7.687,2.614,18.988,2.614,13.376,0,19.6-3.229,21.14-5.227a4.1,4.1,0,0,0,1.23-3.151C1123.8,758.548,1122.419,757.241,1120.574,756.242Z" transform="translate(-5.614 -424.04)" fill="#f6f6f6"/>
  </g>
</svg>
